<?xml version="1.0" encoding="UTF-8" standalone="no"?>
<!-- Generator: Adobe Illustrator 26.1.0, SVG Export Plug-In . SVG Version: 6.00 Build 0)  -->

<svg
   version="1.1"
   x="0px"
   y="0px"
   viewBox="0 0 100 100"
   enable-background="new 0 0 1600 1200"
   xml:space="preserve"
   id="svg668"
   sodipodi:docname="doom-emacs.svg"
   inkscape:version="1.2.2 (b0a8486541, 2022-12-01)"
   height="100"
   width="100"
   xmlns:inkscape="http://www.inkscape.org/namespaces/inkscape"
   xmlns:sodipodi="http://sodipodi.sourceforge.net/DTD/sodipodi-0.dtd"
   xmlns:xlink="http://www.w3.org/1999/xlink"
   xmlns="http://www.w3.org/2000/svg"
   xmlns:svg="http://www.w3.org/2000/svg"><defs
   id="defs672" /><sodipodi:namedview
   id="namedview670"
   pagecolor="#fffffe"
   bordercolor="#DFDFDF"
   borderopacity="1"
   inkscape:showpageshadow="0"
   inkscape:pageopacity="0"
   inkscape:pagecheckerboard="0"
   showgrid="false"
   inkscape:zoom="11.413333"
   inkscape:cx="27.117407"
   inkscape:cy="54.234815"
   inkscape:window-width="3840"
   inkscape:window-height="2091"
   inkscape:window-x="0"
   inkscape:window-y="0"
   inkscape:window-maximized="1"
   inkscape:current-layer="svg668"
   inkscape:deskcolor="#fffffe" />
<g
   id="background"
   display="none"
   transform="translate(-379.6875,-191.7)">
	<radialGradient
   id="SVGID_1_"
   cx="800"
   cy="600"
   r="1000.8554"
   gradientUnits="userSpaceOnUse">
		<stop
   offset="0"
   style="stop-color:#51afef"
   id="stop2" />
		<stop
   offset="1"
   style="stop-color:#a9a1e1"
   id="stop4" />
	</radialGradient>
	<rect
   display="inline"
   fill="url(#SVGID_1_)"
   width="1600"
   height="1200"
   id="rect7"
   x="0"
   y="0"
   style="fill:url(#SVGID_1_)" />
</g>
<g
   id="right-back-horn"
   transform="matrix(0.09843489,0,0,0.09843489,-30.848795,-9.0264778)">
	<g
   id="g14">
		<path
   fill="#a9a1e1"
   d="m 515,504.7 c -8.6,0 -17.5,-2.7 -25.7,-7.8 -7.4,-4.6 -14.2,-10.9 -19.6,-18.4 -21.3,-29.7 -21.4,-68 -19.5,-108 0.1,-2.1 1.5,-3.9 3.6,-4.6 0.5,-0.1 1,-0.2 1.4,-0.2 1.6,0 3.1,0.7 4,2.1 10.1,13.8 21.7,25.7 34.5,35.3 9.2,6.9 17.7,11.7 25.2,15.9 13.7,7.7 25.5,14.3 32.7,29.7 2,4.3 8,17.2 3,30.5 -2.9,7.6 -8.7,14 -17.4,19.1 -5.2,3.1 -11,5.1 -16.7,5.9 -1.8,0.4 -3.6,0.5 -5.5,0.5 0,0 0,0 0,0 z"
   id="path10" />
		<path
   d="m 455.2,370.8 c 13.1,17.9 26.1,29.3 35.5,36.4 26.5,19.9 46.3,22 56.4,43.7 2.1,4.6 7.1,15.5 2.9,26.6 -3.7,9.7 -12.6,15.1 -15.3,16.6 -4.5,2.7 -9.6,4.5 -14.8,5.2 -1.6,0.2 -3.3,0.3 -4.9,0.3 -16.2,0 -31.6,-10.7 -41.2,-24.1 C 452.6,446.2 453.5,407 455.2,370.8 m 0,-10 c -1,0 -1.9,0.1 -2.9,0.4 -4.1,1.2 -6.9,4.9 -7.1,9.1 -1.9,40.9 -1.8,80.1 20.4,111.1 12.7,17.7 31.2,28.3 49.3,28.3 2.1,0 4.2,-0.1 6.2,-0.4 6.5,-0.9 12.7,-3.1 18.6,-6.5 9.7,-5.7 16.3,-13 19.6,-21.7 5.8,-15.3 -0.9,-29.7 -3.2,-34.4 -7.9,-16.8 -20.3,-23.8 -34.8,-31.9 -7.4,-4.1 -15.7,-8.8 -24.7,-15.5 C 484.2,390 473,378.5 463.2,365 c -1.8,-2.7 -4.9,-4.2 -8,-4.2 z"
   id="path12" />
	</g>
	<g
   opacity="0.75"
   id="g18">
		<path
   fill="#fffffe"
   d="m 455.2,370.8 c -1.7,36.2 -2.6,75.4 18.6,104.8 10.6,14.8 28.1,26.2 46.1,23.8 5.2,-0.7 10.3,-2.6 14.8,-5.2 2.6,-1.5 11.6,-6.9 15.3,-16.6 4.2,-11.1 -0.7,-22.1 -2.9,-26.6 -10.1,-21.7 -29.9,-23.8 -56.4,-43.7 -9.4,-7.2 -22.4,-18.6 -35.5,-36.5 z"
   id="path16" />
	</g>
	<g
   opacity="0.27"
   id="g22">
		<path
   d="m 457.4,377.8 c -1,11.9 -3.2,55.4 26.7,92.1 12.1,14.8 25.6,24 35.8,29.5 8.2,-14.2 16.5,-28.4 24.7,-42.6 -10.8,-2.6 -28,-8.2 -45.2,-21.3 -27,-20.3 -38,-46.4 -42,-57.7 z"
   id="path20" />
	</g>
</g>
<g
   id="left-back-horn"
   transform="matrix(0.09843489,0,0,0.09843489,-30.848795,-9.0264778)">
	<g
   id="g29">
		<path
   fill="#a9a1e1"
   d="m 897.7,342.2 c -16,0 -28.2,-5.2 -33.5,-14.1 -2.5,-4.2 -3.4,-9.2 -2.8,-16.1 1.3,-14.8 8.4,-30 21.3,-45.2 l 0.3,-0.3 c 15.6,-18.4 25.5,-44.5 29.5,-77.5 0.2,-2 1.6,-3.6 3.5,-4.2 0.5,-0.1 1,-0.2 1.4,-0.2 1.4,0 2.8,0.6 3.8,1.8 13.5,15.9 23.7,33.6 30.6,52.8 5.8,16.3 9,33.5 9.6,51.2 0,0.5 0,0.9 -0.1,1.4 -5.9,23.4 -23.9,42.3 -46,48.3 -5.4,1.4 -11.5,2.1 -17.6,2.1 z"
   id="path25" />
		<path
   d="m 917.6,189.6 c 9.6,11.3 21.5,28.3 29.7,51.3 6.7,19 8.9,36.3 9.3,49.6 -5.4,21.4 -22.1,39.2 -42.5,44.7 -5,1.3 -10.7,2.1 -16.3,2.1 -12.2,0 -24.3,-3.5 -29.2,-11.7 -1.4,-2.4 -2.7,-5.9 -2.1,-13.1 1.8,-21.3 17.1,-38.8 20.5,-42.7 12,-14.3 25.5,-38.2 30.6,-80.2 m 0,-10 c -1,0 -1.9,0.1 -2.9,0.4 -3.8,1.1 -6.6,4.4 -7,8.4 -3.8,32 -13.4,57.2 -28.3,74.9 l -0.3,0.3 c -13.6,16 -21.2,32.1 -22.5,48 -0.7,7.9 0.4,13.9 3.4,19 6.2,10.6 20,16.6 37.8,16.6 6.5,0 13,-0.8 18.9,-2.4 23.8,-6.4 43.3,-26.8 49.5,-51.9 0.2,-0.9 0.3,-1.8 0.3,-2.8 -0.6,-18.2 -3.9,-35.9 -9.9,-52.7 -7,-19.8 -17.6,-38.1 -31.5,-54.4 -1.8,-2.2 -4.6,-3.4 -7.5,-3.4 z"
   id="path27" />
	</g>
	<g
   opacity="0.75"
   id="g33">
		<path
   fill="#fffffe"
   d="m 917.6,189.6 c 9.6,11.3 21.5,28.3 29.7,51.3 6.7,19 8.9,36.3 9.3,49.6 -5.4,21.4 -22.1,39.2 -42.5,44.7 -15.8,4.3 -38.4,2.4 -45.5,-9.6 -1.4,-2.4 -2.7,-5.9 -2.1,-13.1 1.8,-21.3 17.1,-38.8 20.5,-42.7 12,-14.3 25.5,-38.2 30.6,-80.2 z"
   id="path31" />
	</g>
	<path
   opacity="0.28"
   d="m 954.7,296.6 c -0.1,0.1 -0.1,0.1 -0.2,0.1 -1.2,0.2 -4.7,-27.4 -8.5,-44.1 -5.9,-25.8 -16.9,-44.8 -23.4,-54.9 -2,-2.7 -4,-5.2 -5.8,-7.5 12.1,30.4 9.8,51.1 5.2,64.6 -7.4,21.9 -24.2,34.5 -18.6,44.3 2,3.6 11.9,5.2 30.8,11.4 2.1,0.7 5.6,1.8 9.5,0.7 5.7,-1.7 9.9,-7.6 11.5,-15.5 -0.2,0.4 -0.4,0.7 -0.5,0.9 z"
   id="path35" />
</g>
<g
   id="left-side-horn"
   transform="matrix(0.09843489,0,0,0.09843489,-30.848795,-9.0264778)">
	<g
   id="g42">
		<path
   fill="#a9a1e1"
   d="m 1096.8,498.8 c -2.1,0 -4.2,-0.9 -5.7,-2.4 -3.7,-3.7 -8.4,-7.1 -15.2,-10.9 -2.9,-1.6 -5.9,-3 -9.1,-4.5 -4.5,-2.1 -9.1,-4.3 -13.5,-7.1 -14.3,-9.2 -24.3,-23.6 -33.2,-36.3 -6.3,-9 -10,-20.6 -10.3,-31.7 -0.1,-3.3 1.9,-6.4 5,-7.6 45,-18.2 92.9,-25.3 139.1,-32.2 0.4,-0.1 0.8,-0.1 1.2,-0.1 2.5,0 4.9,1.2 6.4,3.2 1.8,2.4 2.1,5.5 0.8,8.2 l -39.7,85.1 c -5.2,11.1 -11,23.7 -20,33.7 -1.5,1.6 -3.6,2.6 -5.8,2.7 0.2,-0.1 0.1,-0.1 0,-0.1 z"
   id="path38" />
		<path
   d="m 1155.2,374 c -13.2,28.4 -26.5,56.7 -39.7,85.1 -5.2,11.2 -10.6,22.7 -18.7,31.8 -5,-5 -10.9,-8.9 -17,-12.3 -7.3,-4.1 -15.2,-6.9 -22.2,-11.4 -12.8,-8.2 -22,-21.3 -30.9,-34.1 -5.3,-7.6 -8.6,-17.8 -8.8,-27.4 43.9,-17.8 90.9,-24.8 137.3,-31.7 m 0,-16 c -0.8,0 -1.6,0.1 -2.4,0.2 -46.7,6.9 -95.1,14.1 -141,32.7 -6.2,2.5 -10.2,8.6 -10,15.2 0.3,12.7 4.6,25.8 11.7,36.1 9.3,13.3 19.7,28.4 35.4,38.5 4.9,3.1 9.7,5.4 14.4,7.6 3.1,1.4 5.9,2.8 8.6,4.3 6.1,3.4 10.3,6.4 13.4,9.6 3,3 7.1,4.7 11.4,4.7 0.1,0 0.3,0 0.4,0 4.4,-0.1 8.6,-2 11.5,-5.3 9.8,-10.9 15.9,-24.1 21.3,-35.7 l 39.7,-85.1 c 2.5,-5.3 1.8,-11.6 -1.7,-16.3 -2.9,-4.1 -7.7,-6.5 -12.7,-6.5 z"
   id="path40" />
	</g>
	<g
   opacity="0.75"
   id="g46">
		<path
   fill="#fffffe"
   d="m 1096.8,490.8 c 8.1,-9.1 13.5,-20.5 18.7,-31.8 13.2,-28.4 26.5,-56.7 39.7,-85.1 -46.5,6.9 -93.4,13.9 -137.3,31.7 0.2,9.5 3.5,19.7 8.8,27.4 8.9,12.8 18.1,25.9 30.9,34.1 7.1,4.5 14.9,7.3 22.2,11.4 6.1,3.5 12,7.3 17,12.3 z"
   id="path44" />
	</g>
	<g
   opacity="0.28"
   id="g50">
		<path
   d="m 1113.8,435.2 c 6.3,-12.7 14,-26.3 23.6,-40.4 3.8,-5.6 7.7,-10.9 11.5,-15.8 -7.8,4.1 -15.7,8.3 -23.5,12.4 -12.4,6.2 -24.8,12.4 -37.2,18.6"
   id="path48" />
	</g>
</g>
<g
   id="right-horn-outlines"
   transform="matrix(0.09843489,0,0,0.09843489,-30.848795,-9.0264778)">
	<g
   id="g55">
		<path
   d="m 566.1,142.6 c -19.9,61.9 2.2,131.3 35.2,179.4 33,48.1 82,88.9 82,88.9 0,0 33.1,30.3 -9.4,71.1 -23.6,22.7 -44.1,30.3 -60.2,30.3 -12.9,0 -22.9,-4.9 -29.5,-10.9 C 574,492 546.2,430.9 529.7,377.5 501.1,284 516.6,191 566.1,142.6 m 0.1,-15 c -3.8,0 -7.6,1.5 -10.5,4.3 -26.8,26.2 -44.7,63.8 -51.9,108.9 -7.1,44.6 -3,93.3 11.7,141.1 7.8,25.3 18.8,54.5 30.2,80.2 12.1,27.2 21.7,44.2 28.5,50.4 10.5,9.6 24.6,14.9 39.6,14.9 22.9,0 46.7,-11.6 70.6,-34.5 17.7,-16.9 26.5,-34.9 26.3,-53.3 -0.3,-23.6 -15.4,-38.1 -17.2,-39.7 -0.2,-0.2 -0.4,-0.3 -0.5,-0.5 -0.5,-0.4 -47.9,-40.1 -79.3,-85.9 -16.6,-24.3 -28.8,-51.7 -35.2,-79.4 -7.2,-31.3 -6.6,-60.6 1.9,-86.9 2.1,-6.6 -0.5,-13.7 -6.4,-17.3 -2.4,-1.6 -5.1,-2.3 -7.8,-2.3 z"
   id="path53" />
	</g>
	<g
   id="g59">
		<path
   d="m 767.6,924.5 c 7,0 14,1.1 20.6,3.5 13.1,4.8 26.9,16.8 30.5,30.8 3.7,14.6 -6.9,26.5 -14.7,37.8 -10.3,14.8 -21,29.4 -32,43.7 -5.7,7.3 -11.5,14.5 -17.3,21.7 -2.9,3.5 -22.1,30.6 -22.1,30.6 0,0 -12.8,-89.2 -11,-133.7 0.3,-8.1 0.9,-17 6.7,-22.6 2.5,-2.5 5.8,-4.1 9.1,-5.4 9.4,-4 19.9,-6.4 30.2,-6.4 m 0,-15 c -11.8,0 -24.3,2.6 -36.1,7.5 -4.3,1.8 -9.4,4.2 -13.8,8.5 -10.3,10 -10.9,24.2 -11.3,32.7 -1.9,45.4 10.6,132.8 11.1,136.5 0.9,6.1 5.4,11 11.3,12.5 1.2,0.3 2.4,0.4 3.5,0.4 4.8,0 9.4,-2.3 12.2,-6.3 9.3,-13 19.8,-27.8 21.5,-29.8 5.9,-7.2 11.8,-14.6 17.6,-22 11.3,-14.5 22.2,-29.4 32.5,-44.3 0.9,-1.3 1.9,-2.7 2.9,-4.1 8,-11.1 19,-26.4 14,-45.9 -5.2,-20.3 -23.8,-35.3 -39.9,-41.2 -7.8,-3 -16.5,-4.5 -25.5,-4.5 z"
   id="path57" />
	</g>
	<g
   id="g63">
		<path
   d="m 393.7,407.2 c 14.4,44.8 35.7,63.7 52,72.7 41.7,23 86.4,1.4 107.3,30.3 11.6,16 7.4,36 7.2,37.5 -2.4,19 -19.6,32 -32.9,37 -5.4,2 -11,3 -16.6,3 -32.5,0 -68.1,-30.1 -85.8,-51.9 -40.7,-49.9 -33.6,-112.3 -31.2,-128.6 m 0,-12 c -0.3,0 -0.7,0 -1,0 -5.6,0.5 -10.1,4.7 -10.9,10.2 -2.6,18.1 -2.8,37.1 -0.6,55 4.1,32 15.6,59.9 34.4,82.9 10.9,13.4 25.5,26.7 40,36.5 19.5,13.2 38,19.8 55.2,19.8 7.3,0 14.4,-1.3 20.9,-3.7 16.7,-6.3 37.3,-22.3 40.5,-46.6 v -0.2 c 1.7,-10.1 2.6,-29.4 -9.4,-46.1 -14.6,-20.1 -37.2,-21.4 -59.1,-22.5 -17.3,-0.9 -35.2,-1.9 -52.1,-11.2 -20.4,-11.2 -36,-33.4 -46.4,-65.8 -1.7,-5 -6.3,-8.3 -11.5,-8.3 z"
   id="path61" />
	</g>
</g>
<g
   id="left-top-middle-horn"
   transform="matrix(0.09843489,0,0,0.09843489,-30.848795,-9.0264778)">
	<g
   id="g70">
		<path
   fill="#a9a1e1"
   d="m 1032.3,372.6 c -1,0 -2,-0.2 -2.9,-0.7 l -88.7,-44.3 c -1.8,-0.9 -3.1,-2.6 -3.5,-4.5 -0.4,-2 0.1,-4 1.4,-5.5 0.5,-0.6 50.8,-60.3 58.2,-114.3 7.4,-54 -12.2,-95.3 -12.4,-95.7 -1.3,-2.8 -0.6,-6.1 1.8,-8 1.2,-0.9 2.6,-1.4 4,-1.4 1.5,0 3,0.5 4.2,1.5 2.1,1.8 51.8,44.2 64.1,113.4 12.2,68.7 -18.8,151.7 -20.2,155.2 -0.7,1.7 -2,3.1 -3.7,3.7 -0.7,0.4 -1.5,0.6 -2.3,0.6 z"
   id="path66" />
		<path
   d="m 990.2,104.7 c 0,0 49.9,41.9 61.9,109.6 12,67.7 -19.8,151.7 -19.8,151.7 l -88.7,-44.3 c 0,0 51.9,-61 59.7,-117.6 7.8,-56.6 -13.1,-99.4 -13.1,-99.4 m 0,-13 c -2.8,0 -5.6,0.9 -8,2.7 -4.8,3.8 -6.4,10.4 -3.7,15.9 0.2,0.4 19,40.3 11.9,92 -7.2,52.1 -56.2,110.4 -56.7,111 -2.6,3 -3.6,7.1 -2.8,11 0.8,3.9 3.4,7.2 6.9,9 l 88.7,44.3 c 1.8,0.9 3.8,1.4 5.8,1.4 1.6,0 3.2,-0.3 4.7,-0.9 3.4,-1.3 6.1,-4.1 7.4,-7.5 1.4,-3.6 33,-88.2 20.5,-158.6 -12.8,-71.5 -64.2,-115.4 -66.4,-117.3 -2.3,-2 -5.3,-3 -8.3,-3 z"
   id="path68" />
	</g>
	<g
   opacity="0.75"
   id="g74">
		<path
   fill="#fffffe"
   d="m 1032.3,366.1 c 0,0 31.9,-84 19.8,-151.7 -12.1,-67.7 -61.9,-109.6 -61.9,-109.6 0,0 20.8,42.8 13,99.4 -7.8,56.6 -59.7,117.6 -59.7,117.6 z"
   id="path72" />
	</g>
	<g
   id="g274">
		<path
   opacity="0.28"
   d="m 1043.8,182.4 c 0.2,0.5 0.4,1 0.6,1.5 -0.2,-0.4 -0.4,-1 -0.6,-1.5 z"
   id="path76" />
		<path
   opacity="0.28"
   d="m 1044.8,185.2 c 0.2,0.5 0.4,1 0.6,1.5 -0.2,-0.5 -0.4,-1 -0.6,-1.5 z"
   id="path78" />
		<path
   opacity="0.28"
   d="m 1042.8,179.8 c 0.2,0.5 0.4,1 0.6,1.5 -0.2,-0.5 -0.4,-1 -0.6,-1.5 z"
   id="path80" />
		<path
   opacity="0.28"
   d="m 1040.6,174.5 c 0.2,0.5 0.5,1.1 0.7,1.6 -0.3,-0.6 -0.5,-1.1 -0.7,-1.6 z"
   id="path82" />
		<path
   opacity="0.28"
   d="m 1041.7,177.1 c 0.2,0.5 0.4,1 0.6,1.6 -0.2,-0.6 -0.4,-1.1 -0.6,-1.6 z"
   id="path84" />
		<path
   opacity="0.28"
   d="m 1048.5,196.4 c 0.2,0.5 0.3,1.1 0.5,1.6 -0.2,-0.5 -0.4,-1.1 -0.5,-1.6 z"
   id="path86" />
		<path
   opacity="0.28"
   d="m 1039.4,171.9 c 0.2,0.5 0.5,1.1 0.7,1.6 -0.2,-0.5 -0.4,-1.1 -0.7,-1.6 z"
   id="path88" />
		<path
   opacity="0.28"
   d="m 1049.3,199.3 c 0.1,0.5 0.3,1.1 0.4,1.7 -0.1,-0.6 -0.2,-1.2 -0.4,-1.7 z"
   id="path90" />
		<path
   opacity="0.28"
   d="m 1046.7,190.7 c 0.2,0.5 0.3,1 0.5,1.6 -0.1,-0.6 -0.3,-1.1 -0.5,-1.6 z"
   id="path92" />
		<path
   opacity="0.28"
   d="m 1045.8,187.9 c 0.2,0.5 0.4,1 0.5,1.5 -0.1,-0.5 -0.3,-1 -0.5,-1.5 z"
   id="path94" />
		<path
   opacity="0.28"
   d="m 1047.6,193.5 c 0.2,0.5 0.3,1.1 0.5,1.6 -0.1,-0.5 -0.3,-1.1 -0.5,-1.6 z"
   id="path96" />
		<path
   opacity="0.28"
   d="m 1025.3,145.9 c 0.3,0.5 0.6,0.9 0.9,1.4 -0.3,-0.5 -0.6,-0.9 -0.9,-1.4 z"
   id="path98" />
		<path
   opacity="0.28"
   d="m 1038.2,169.3 c 0.3,0.6 0.5,1.1 0.8,1.7 -0.2,-0.6 -0.5,-1.2 -0.8,-1.7 z"
   id="path100" />
		<path
   opacity="0.28"
   d="m 1027.9,150.1 c 0.3,0.5 0.6,1 0.9,1.5 -0.3,-0.5 -0.6,-1 -0.9,-1.5 z"
   id="path102" />
		<path
   opacity="0.28"
   d="m 1024,143.9 c 0.3,0.5 0.6,0.9 0.9,1.4 -0.3,-0.5 -0.6,-1 -0.9,-1.4 z"
   id="path104" />
		<path
   opacity="0.28"
   d="m 1026.6,148 c 0.3,0.5 0.6,1 0.9,1.4 -0.3,-0.5 -0.6,-0.9 -0.9,-1.4 z"
   id="path106" />
		<path
   opacity="0.28"
   d="m 1022.7,141.9 c 0.3,0.4 0.6,0.9 0.9,1.4 -0.3,-0.5 -0.6,-0.9 -0.9,-1.4 z"
   id="path108" />
		<path
   opacity="0.28"
   d="m 1021.4,140 c 0.3,0.4 0.6,0.9 0.9,1.3 -0.3,-0.4 -0.6,-0.9 -0.9,-1.3 z"
   id="path110" />
		<path
   opacity="0.28"
   d="m 1050.1,202.2 c 0.1,0.6 0.3,1.1 0.4,1.7 -0.1,-0.5 -0.3,-1.1 -0.4,-1.7 z"
   id="path112" />
		<path
   opacity="0.28"
   d="m 1036.9,166.6 c 0.3,0.6 0.6,1.3 0.9,1.9 -0.2,-0.7 -0.6,-1.3 -0.9,-1.9 z"
   id="path114" />
		<path
   opacity="0.28"
   d="m 1033,158.9 c 1.3,2.3 2.5,4.7 3.7,7.2 -1.2,-2.5 -2.4,-4.9 -3.7,-7.2 z"
   id="path116" />
		<path
   opacity="0.28"
   d="m 1030.5,154.4 c 0.3,0.6 0.7,1.2 1,1.7 -0.4,-0.5 -0.7,-1.1 -1,-1.7 z"
   id="path118" />
		<path
   opacity="0.28"
   d="m 1029.2,152.2 c 0.3,0.5 0.6,1.1 0.9,1.6 -0.3,-0.5 -0.6,-1.1 -0.9,-1.6 z"
   id="path120" />
		<path
   opacity="0.28"
   d="m 1031.7,156.6 c 0.4,0.7 0.7,1.3 1.1,2 -0.3,-0.6 -0.7,-1.3 -1.1,-2 z"
   id="path122" />
		<path
   opacity="0.28"
   d="m 1055.3,253.6 c 0,-0.2 0,-0.4 0,-0.6 0.1,0.2 0,0.4 0,0.6 z"
   id="path124" />
		<path
   opacity="0.28"
   d="m 1053.6,220.2 c 0,0.3 0.1,0.7 0.1,1 0,-0.3 0,-0.6 -0.1,-1 z"
   id="path126" />
		<path
   opacity="0.28"
   d="m 1054,223.3 c 0,0.3 0.1,0.6 0.1,1 0,-0.4 0,-0.7 -0.1,-1 z"
   id="path128" />
		<path
   opacity="0.28"
   d="m 1054.4,226.9 c 0,0.1 0,0.2 0,0.3 0.1,-0.1 0,-0.2 0,-0.3 z"
   id="path130" />
		<path
   opacity="0.28"
   d="m 1050.8,205.2 c 0.1,0.6 0.3,1.2 0.4,1.8 -0.1,-0.6 -0.3,-1.2 -0.4,-1.8 z"
   id="path132" />
		<path
   opacity="0.28"
   d="m 1053.2,217.2 c 0,0.3 0.1,0.6 0.1,0.9 0,-0.3 -0.1,-0.6 -0.1,-0.9 z"
   id="path134" />
		<path
   opacity="0.28"
   d="m 1054.7,230.2 c 0,0.3 0,0.6 0.1,0.9 0,-0.3 0,-0.6 -0.1,-0.9 z"
   id="path136" />
		<path
   opacity="0.28"
   d="m 1055,233.2 c 0,0.3 0,0.7 0.1,1 -0.1,-0.3 -0.1,-0.6 -0.1,-1 z"
   id="path138" />
		<path
   opacity="0.28"
   d="m 1055.4,243.4 c 0,0.2 0,0.5 0,0.7 0,-0.2 0,-0.5 0,-0.7 z"
   id="path140" />
		<path
   opacity="0.28"
   d="m 1055.4,246.5 c 0,0.3 0,0.6 0,1 0,-0.4 0,-0.7 0,-1 z"
   id="path142" />
		<path
   opacity="0.28"
   d="m 1020.1,138.1 c 0.3,0.4 0.6,0.9 0.9,1.3 -0.3,-0.4 -0.6,-0.9 -0.9,-1.3 z"
   id="path144" />
		<path
   opacity="0.28"
   d="m 1055.1,236.4 c 0,0.3 0,0.6 0,1 0.1,-0.4 0.1,-0.7 0,-1 z"
   id="path146" />
		<path
   opacity="0.28"
   d="m 1055.3,239.8 c 0,0.2 0,0.3 0,0.5 0,-0.1 0,-0.3 0,-0.5 z"
   id="path148" />
		<path
   opacity="0.28"
   d="m 1055.4,250.5 c 0,-0.3 0,-0.6 0,-0.9 0,0.3 0,0.6 0,0.9 z"
   id="path150" />
		<path
   opacity="0.28"
   d="m 1053.8,276.7 c 0,-0.3 0.1,-0.6 0.1,-0.8 -0.1,0.2 -0.1,0.5 -0.1,0.8 z"
   id="path152" />
		<path
   opacity="0.28"
   d="m 1053.4,279.7 c 0,-0.2 0,-0.4 0.1,-0.6 0,0.2 -0.1,0.4 -0.1,0.6 z"
   id="path154" />
		<path
   opacity="0.28"
   d="m 997.8,111.3 c -0.2,-0.2 -0.4,-0.4 -0.6,-0.6 0.1,0.2 0.4,0.4 0.6,0.6 z"
   id="path156" />
		<path
   opacity="0.28"
   d="m 1051.5,208.2 c 0.1,0.7 0.3,1.4 0.4,2 -0.1,-0.7 -0.3,-1.3 -0.4,-2 z"
   id="path158" />
		<path
   opacity="0.28"
   d="m 1052.1,211.2 c 0.2,1 0.4,2 0.6,3.1 -0.2,-1 -0.4,-2 -0.6,-3.1 z"
   id="path160" />
		<path
   opacity="0.28"
   d="m 1054.7,266.7 c 0,-0.2 0,-0.4 0,-0.6 0,0.2 0,0.4 0,0.6 z"
   id="path162" />
		<path
   opacity="0.28"
   d="m 1055.1,260.6 c 0,-0.3 0,-0.6 0,-0.9 0,0.3 0,0.6 0,0.9 z"
   id="path164" />
		<path
   opacity="0.28"
   d="m 1054.1,273.6 c 0,-0.3 0.1,-0.5 0.1,-0.8 -0.1,0.3 -0.1,0.5 -0.1,0.8 z"
   id="path166" />
		<path
   opacity="0.28"
   d="m 1054.9,263.7 c 0,-0.3 0,-0.6 0.1,-0.9 -0.1,0.3 -0.1,0.6 -0.1,0.9 z"
   id="path168" />
		<path
   opacity="0.28"
   d="m 1055.2,257.1 c 0,-0.2 0,-0.3 0,-0.5 0,0.2 0,0.4 0,0.5 z"
   id="path170" />
		<path
   opacity="0.28"
   d="m 1054.4,270 c 0,-0.1 0,-0.1 0,-0.2 0,0.1 0,0.1 0,0.2 z"
   id="path172" />
		<path
   opacity="0.28"
   d="m 991.4,105.2 c 0,0.1 0,0.1 0,0 0,0.1 0,0.1 0,0 z"
   id="path174" />
		<path
   opacity="0.28"
   d="m 1042.8,334 c 0.1,-0.2 0.1,-0.5 0.2,-0.7 -0.1,0.2 -0.1,0.5 -0.2,0.7 z"
   id="path176" />
		<path
   opacity="0.28"
   d="m 1046,321.2 c 0,-0.1 0.1,-0.2 0.1,-0.3 0,0.1 -0.1,0.2 -0.1,0.3 z"
   id="path178" />
		<path
   opacity="0.28"
   d="m 1044.8,326.5 c 0.1,-0.2 0.1,-0.5 0.2,-0.7 -0.1,0.2 -0.2,0.4 -0.2,0.7 z"
   id="path180" />
		<path
   opacity="0.28"
   d="m 1046.7,318.3 c 0,-0.1 0,-0.2 0.1,-0.3 -0.1,0.2 -0.1,0.3 -0.1,0.3 z"
   id="path182" />
		<path
   opacity="0.28"
   d="m 1043.5,331.5 c 0,-0.1 0.1,-0.2 0.1,-0.4 -0.1,0.1 -0.1,0.2 -0.1,0.4 z"
   id="path184" />
		<path
   opacity="0.28"
   d="m 1044.2,328.8 c 0,-0.2 0.1,-0.3 0.1,-0.5 -0.1,0.2 -0.1,0.3 -0.1,0.5 z"
   id="path186" />
		<path
   opacity="0.28"
   d="m 1045.4,324 c 0.1,-0.2 0.1,-0.4 0.2,-0.7 -0.1,0.3 -0.2,0.5 -0.2,0.7 z"
   id="path188" />
		<path
   opacity="0.28"
   d="m 1049.6,304.4 c 0,-0.2 0.1,-0.4 0.1,-0.6 0,0.1 -0.1,0.3 -0.1,0.6 z"
   id="path190" />
		<path
   opacity="0.28"
   d="m 1050.1,301.6 c 0,-0.2 0.1,-0.5 0.1,-0.7 0,0.2 0,0.4 -0.1,0.7 z"
   id="path192" />
		<path
   opacity="0.28"
   d="m 1047.8,313.2 c 0,-0.2 0.1,-0.5 0.1,-0.7 0,0.2 0,0.4 -0.1,0.7 z"
   id="path194" />
		<path
   opacity="0.28"
   d="m 1048.4,310.2 c 0,-0.1 0.1,-0.3 0.1,-0.4 0,0.2 0,0.3 -0.1,0.4 z"
   id="path196" />
		<path
   opacity="0.28"
   d="m 1047.2,315.8 c 0,-0.2 0.1,-0.4 0.1,-0.6 0,0.2 0,0.4 -0.1,0.6 z"
   id="path198" />
		<path
   opacity="0.28"
   d="m 1037,353.8 c 0.1,-0.3 0.2,-0.6 0.3,-1 -0.1,0.4 -0.2,0.7 -0.3,1 z"
   id="path200" />
		<path
   opacity="0.28"
   d="m 1037.5,352.3 c 0.1,-0.3 0.2,-0.6 0.3,-0.9 -0.1,0.3 -0.2,0.6 -0.3,0.9 z"
   id="path202" />
		<path
   opacity="0.28"
   d="m 1038,350.8 c 0.1,-0.3 0.2,-0.6 0.3,-0.9 -0.1,0.3 -0.2,0.6 -0.3,0.9 z"
   id="path204" />
		<path
   opacity="0.28"
   d="m 1018.7,136.2 c 0.3,0.4 0.6,0.9 1,1.3 -0.3,-0.4 -0.6,-0.8 -1,-1.3 z"
   id="path206" />
		<path
   opacity="0.28"
   d="m 1035.9,357.3 c 0.3,-1 0.7,-2.1 1.1,-3.3 -0.4,1.2 -0.8,2.3 -1.1,3.3 z"
   id="path208" />
		<path
   opacity="0.28"
   d="m 1042.2,336.2 c 0.1,-0.2 0.1,-0.5 0.2,-0.7 0,0.2 -0.1,0.5 -0.2,0.7 z"
   id="path210" />
		<path
   opacity="0.28"
   d="m 1038.5,349.1 c 0.1,-0.4 0.3,-0.9 0.4,-1.3 -0.1,0.4 -0.3,0.8 -0.4,1.3 z"
   id="path212" />
		<path
   opacity="0.28"
   d="m 1041,340.7 c 0,-0.1 0.1,-0.3 0.1,-0.4 0,0.1 -0.1,0.3 -0.1,0.4 z"
   id="path214" />
		<path
   opacity="0.28"
   d="m 1041.6,338.3 c 0.1,-0.2 0.1,-0.4 0.2,-0.6 0,0.2 -0.1,0.4 -0.2,0.6 z"
   id="path216" />
		<path
   opacity="0.28"
   d="m 1039.8,344.9 c 0.1,-0.3 0.2,-0.5 0.2,-0.8 -0.1,0.2 -0.2,0.5 -0.2,0.8 z"
   id="path218" />
		<path
   opacity="0.28"
   d="m 1039.2,346.7 c 0.1,-0.3 0.2,-0.5 0.2,-0.8 0,0.2 -0.1,0.5 -0.2,0.8 z"
   id="path220" />
		<path
   opacity="0.28"
   d="m 1040.3,343 c 0.1,-0.3 0.1,-0.5 0.2,-0.8 0,0.2 -0.1,0.5 -0.2,0.8 z"
   id="path222" />
		<path
   opacity="0.28"
   d="m 1050.6,298.6 c 0,-0.2 0.1,-0.4 0.1,-0.5 0,0.1 0,0.3 -0.1,0.5 z"
   id="path224" />
		<path
   opacity="0.28"
   d="m 998.9,112.4 c 0.2,0.2 0.5,0.5 0.7,0.7 -0.3,-0.2 -0.5,-0.4 -0.7,-0.7 z"
   id="path226" />
		<path
   opacity="0.28"
   d="m 1003.8,117.7 c 0.3,0.3 0.6,0.7 0.9,1 -0.3,-0.3 -0.6,-0.6 -0.9,-1 z"
   id="path228" />
		<path
   opacity="0.28"
   d="m 1001.7,115.5 c 0.3,0.3 0.5,0.6 0.8,0.9 -0.2,-0.4 -0.5,-0.7 -0.8,-0.9 z"
   id="path230" />
		<path
   opacity="0.28"
   d="m 1002.8,116.6 c 0.3,0.3 0.6,0.6 0.9,0.9 -0.3,-0.3 -0.6,-0.6 -0.9,-0.9 z"
   id="path232" />
		<path
   opacity="0.28"
   d="m 999.8,113.4 c 0.2,0.3 0.5,0.5 0.7,0.8 -0.2,-0.3 -0.5,-0.6 -0.7,-0.8 z"
   id="path234" />
		<path
   opacity="0.28"
   d="m 1000.8,114.4 c 0.3,0.3 0.5,0.5 0.8,0.8 -0.3,-0.3 -0.6,-0.5 -0.8,-0.8 z"
   id="path236" />
		<path
   opacity="0.28"
   d="m 1004.9,119 c 0.3,0.4 0.7,0.7 1,1.1 -0.3,-0.4 -0.6,-0.8 -1,-1.1 z"
   id="path238" />
		<path
   opacity="0.28"
   d="m 1016.1,132.6 c 0.3,0.5 0.7,0.9 1,1.4 -0.3,-0.5 -0.7,-0.9 -1,-1.4 z"
   id="path240" />
		<path
   opacity="0.28"
   d="m 1017.4,134.4 c 0.3,0.4 0.7,0.9 1,1.4 -0.3,-0.5 -0.7,-0.9 -1,-1.4 z"
   id="path242" />
		<path
   opacity="0.28"
   d="m 1014.7,130.8 c 0.4,0.5 0.7,1 1.1,1.5 -0.3,-0.5 -0.7,-1 -1.1,-1.5 z"
   id="path244" />
		<path
   opacity="0.28"
   d="m 1006,120.2 c 0.4,0.4 0.7,0.8 1.1,1.3 -0.3,-0.4 -0.7,-0.9 -1.1,-1.3 z"
   id="path246" />
		<path
   opacity="0.28"
   d="m 1007.2,121.5 c 2.3,2.7 4.8,5.8 7.4,9.1 -2.6,-3.3 -5.1,-6.3 -7.4,-9.1 z"
   id="path248" />
		<path
   opacity="0.28"
   d="m 994.8,108.4 c 0.2,0.2 0.4,0.4 0.6,0.6 -0.2,-0.2 -0.4,-0.4 -0.6,-0.6 z"
   id="path250" />
		<path
   opacity="0.28"
   d="m 1029.8,351 c 0,0 10.5,-37.6 14,-56 3.6,-18.3 6.4,-48.5 3.9,-75.5 -2.5,-27 -14.9,-55 -21.7,-68.3 -6.7,-13.1 -21.3,-32.5 -33.8,-44.3 15.7,30.1 30.8,65.3 32.7,103.7 2.4,51.1 -25.9,92.7 -47.9,129.9 l 55.9,25.5 c 0,0 1.2,-3.1 3,-8.7 z"
   id="path252" />
		<path
   opacity="0.28"
   d="m 991.7,105.5 c 0,0 0.1,0.1 0.1,0.1 0,0 -0.1,-0.1 -0.1,-0.1 z"
   id="path254" />
		<path
   opacity="0.28"
   d="m 992,105.8 c 0.1,0.1 0.1,0.1 0.2,0.2 0,0 -0.1,-0.1 -0.2,-0.2 z"
   id="path256" />
		<path
   opacity="0.28"
   d="m 1052.1,289.4 c 0,-0.3 0.1,-0.5 0.1,-0.8 0,0.2 0,0.5 -0.1,0.8 z"
   id="path258" />
		<path
   opacity="0.28"
   d="m 1052.6,286.3 c 0,-0.2 0.1,-0.4 0.1,-0.7 -0.1,0.3 -0.1,0.5 -0.1,0.7 z"
   id="path260" />
		<path
   opacity="0.28"
   d="m 998,111.5 c 0.2,0.2 0.4,0.5 0.7,0.7 -0.3,-0.2 -0.5,-0.5 -0.7,-0.7 z"
   id="path262" />
		<path
   opacity="0.28"
   d="m 992.5,106.2 c 0.6,0.6 1.4,1.3 2.3,2.1 -1,-0.8 -1.7,-1.5 -2.3,-2.1 z"
   id="path264" />
		<polygon
   opacity="0.28"
   points="991.2,105 991.1,105 "
   id="polygon266" />
		<path
   opacity="0.28"
   d="m 996.3,109.9 c 0.2,0.2 0.4,0.4 0.6,0.6 -0.2,-0.2 -0.4,-0.4 -0.6,-0.6 z"
   id="path268" />
		<path
   opacity="0.28"
   d="m 1051.7,292.3 c 0,-0.2 0.1,-0.4 0.1,-0.6 0,0.1 -0.1,0.4 -0.1,0.6 z"
   id="path270" />
		<path
   opacity="0.28"
   d="m 995.5,109.1 c 0.2,0.2 0.4,0.4 0.6,0.6 -0.2,-0.2 -0.4,-0.4 -0.6,-0.6 z"
   id="path272" />
	</g>
</g>
<g
   id="right-bottom-back-horn"
   transform="matrix(0.09843489,0,0,0.09843489,-30.848795,-9.0264778)">
	<g
   id="g281">
		<path
   fill="#a9a1e1"
   d="m 483.8,1016.3 c -2.2,0 -4.3,-0.9 -5.9,-2.6 -2,-2.2 -2.7,-5.3 -1.6,-8.1 9.2,-25.5 18.9,-46.8 27.5,-65.6 3.5,-7.7 6.8,-15 9.8,-21.8 23.2,-53.9 34.6,-72.8 56.2,-78 3.7,-0.9 7.6,-1.3 11.6,-1.3 16.7,0 31,7.7 35,10.1 l 0.2,0.1 c 19.9,11.8 26.7,25 28.9,34.1 2.9,11.9 0,32.6 -30.1,63.6 -8.2,8.5 -22.8,21.4 -45.7,34.8 -24.4,14.3 -52.5,25.8 -83.7,34.4 -0.8,0.2 -1.5,0.3 -2.2,0.3 z"
   id="path277" />
		<path
   d="m 581.3,846.9 c 15.1,0 28.5,7.5 30.9,8.9 3.8,2.2 21.3,12.3 25.4,29.2 1,4.3 4.5,22.6 -28,56.2 -18,18.6 -57.4,48.3 -125.8,67 12.9,-35.8 27.1,-63.7 37.1,-86.9 23.1,-53.6 33.3,-69.2 50.7,-73.4 3.2,-0.7 6.5,-1 9.7,-1 m 0,-16 v 0 c -4.6,0 -9.1,0.5 -13.4,1.6 -13.1,3.2 -23.1,10.8 -32.7,24.7 -7.8,11.4 -15.9,27.7 -29,57.9 -2.9,6.7 -6.2,13.9 -9.7,21.6 -8.6,18.9 -18.4,40.3 -27.8,66.2 -2,5.6 -0.8,11.9 3.3,16.3 3.1,3.3 7.4,5.1 11.8,5.1 1.4,0 2.8,-0.2 4.2,-0.6 31.8,-8.7 60.6,-20.6 85.6,-35.2 23.7,-13.9 38.9,-27.3 47.4,-36.1 32.6,-33.6 35.4,-57.2 32.1,-71.1 -4.6,-19.2 -20.3,-31.9 -32.6,-39.1 l -0.2,-0.1 c -4.4,-2.7 -20.3,-11.2 -39,-11.2 z"
   id="path279" />
	</g>
	<g
   opacity="0.75"
   id="g285">
		<path
   fill="#fffffe"
   d="m 483.8,1008.3 c 12.9,-35.8 27.1,-63.7 37.1,-86.9 23.1,-53.6 33.3,-69.2 50.7,-73.4 18.7,-4.5 37.6,6.1 40.6,7.8 3.8,2.2 21.3,12.3 25.4,29.2 1,4.3 4.5,22.6 -28,56.2 -18.1,18.6 -57.5,48.4 -125.8,67.1 z"
   id="path283" />
	</g>
	<g
   opacity="0.28"
   id="g289">
		<path
   d="m 575.4,958.9 v 0 c -15.9,10.6 -34,21.5 -54.2,31.9 -12.9,6.6 -25.4,12.4 -37.4,17.5 9.2,-9.2 19.3,-20.5 29.2,-34.4 12.9,-18 21.9,-35.2 28.2,-49.6"
   id="path287" />
	</g>
</g>
<g
   id="left-bottom-horn"
   transform="matrix(0.09843489,0,0,0.09843489,-30.848795,-9.0264778)">
	<g
   id="g296">
		<path
   fill="#a9a1e1"
   d="m 1242.3,897.4 c -0.6,0 -1.1,-0.1 -1.7,-0.2 l -101.2,-21.4 c -2.6,-0.6 -4.8,-2.4 -5.8,-4.9 -1,-2.5 -0.7,-5.3 0.8,-7.5 l 50.3,-73.3 c 1.5,-2.2 4,-3.5 6.6,-3.5 0.1,0 0.3,0 0.4,0 2.8,0.2 5.3,1.7 6.6,4.2 l 50.9,94.8 c 1.5,2.7 1.2,6.1 -0.6,8.6 -1.4,2 -3.8,3.2 -6.3,3.2 z"
   id="path292" />
		<path
   d="m 1191.4,794.6 50.9,94.8 -101.2,-21.4 50.3,-73.4 m 0,-16 c -5.3,0 -10.2,2.6 -13.2,6.9 l -50.3,73.3 c -3,4.4 -3.6,10 -1.7,15 2,5 6.3,8.6 11.5,9.7 L 1239,905 c 1.1,0.2 2.2,0.3 3.3,0.3 5,0 9.7,-2.3 12.8,-6.4 3.7,-5 4.2,-11.7 1.3,-17.2 l -50.9,-94.8 c -2.6,-4.9 -7.7,-8.1 -13.2,-8.4 -0.3,0.1 -0.6,0.1 -0.9,0.1 z"
   id="path294" />
	</g>
	<g
   opacity="0.75"
   id="g300">
		<polygon
   fill="#fffffe"
   points="1141.1,867.9 1191.4,794.6 1242.3,889.4 "
   id="polygon298" />
	</g>
	<path
   opacity="0.28"
   d="m 1136.1,867.9 106.2,21.5 c -9.7,-5.8 -21.7,-14.4 -33.5,-26.9 -17.9,-18.8 -27.7,-38.2 -33,-51.3"
   id="path302" />
</g>
<g
   id="body"
   transform="translate(-373.16178,-91.7)">
	<circle
   fill="#51afef"
   stroke="#282c34"
   stroke-width="1.9687"
   stroke-miterlimit="10"
   cx="424.64395"
   cy="149.63876"
   r="37.208385"
   id="circle305" />

		<radialGradient
   id="SVGID_00000026142159558619913370000014626459478219127435_"
   cx="953.55469"
   cy="368.33069"
   r="639.55212"
   gradientTransform="matrix(-0.09843489,0,0,0.09843489,503.15129,82.673521)"
   gradientUnits="userSpaceOnUse">
		<stop
   offset="0.46720001"
   style="stop-color:#ffffff;stop-opacity:0;"
   id="stop307" />





		<stop
   offset="0.8915"
   style="stop-color:#545454;stop-opacity:0.21666665;"
   id="stop319" />
		<stop
   offset="0.9716"
   style="stop-color:#171717;stop-opacity:0.60792494;"
   id="stop321" />
		<stop
   offset="1"
   style="stop-color:#000000;stop-opacity:0.75655478;"
   id="stop323" />
	</radialGradient>

		<circle
   opacity="0.5"
   fill="url(#SVGID_00000026142159558619913370000014626459478219127435_)"
   stroke="#282c34"
   stroke-width="1.9687"
   stroke-miterlimit="10"
   cx="424.64395"
   cy="149.63876"
   r="37.208385"
   id="circle326"
   style="fill:url(#SVGID_00000026142159558619913370000014626459478219127435_)" />
	<g
   id="Layer_23"
   transform="matrix(0.09843489,0,0,0.09843489,342.313,82.673521)">
		<g
   opacity="0.37"
   id="g470">
			<path
   fill="#ecbe7b"
   d="m 563.2,679.8 c 2.3,-5.2 4.7,-10.4 7,-15.7 0,-1.1 0.1,-2.2 0.1,-3.4 0,-2.9 -0.2,-5.9 1.7,-8.3 2.1,-2.8 5.8,-4 8.8,-5.4 3.4,-1.7 7.9,-4.8 11.6,-5.6 3.2,-0.7 6.4,1.6 9,3.1 1.6,1 3.2,2 4.8,3.1 1.9,1.1 3.8,2.4 5.1,4 2.5,2.1 4.9,4.3 7.2,6.5 2.9,2.8 5.8,5.6 8.7,8.5 2.3,2.2 5.2,4.4 6.5,7.3 1.5,3.4 0.6,7.4 0.3,11 -0.4,4.1 -0.4,8.5 -1.3,12.4 -0.5,2.2 -1.6,3.7 -3,4.8 0.2,2.5 -1.4,5 -4.8,5.2 -7.5,0.3 -15,-0.5 -22.3,-2.3 -1.3,-0.3 -2.2,-1.1 -2.8,-2 -2.7,-0.7 -5.4,-1.4 -8.1,-2.3 -1,-0.3 -1.8,-0.8 -2.3,-1.4 -0.8,2.7 -4.3,3.8 -6.8,2.9 -4.8,6.4 -14.2,0.4 -19.3,-2.8 -8.1,-5 -3.1,-12.9 -0.1,-19.6 z"
   id="path328" />
			<path
   fill="#ecbe7b"
   d="m 486.4,710 c 2.8,-8.8 5.7,-17.6 8.5,-26.3 1.1,-3.4 4.6,-4.1 7.1,-3 4.5,0.6 8.6,2.3 13,3.6 5.1,1.6 10.3,2.8 15.5,3.9 2.9,0.6 4.1,3.7 3.4,6.3 2.2,4 4.1,8.1 5.8,12.2 0,0.1 0,0.1 0.1,0.2 0,0 0,0 0,0 0.2,0.4 0.3,0.8 0.5,1.2 0.4,1 0.4,1.9 0.1,2.8 0,0.1 0.1,0.2 0.1,0.3 0.6,2.3 1.2,4.6 1.8,6.9 1.7,4 2.8,8.1 2.6,12.4 0.7,4.7 1,9.4 0.6,14.2 3.2,1.8 3.6,7.8 -1,9.4 -4.9,1.6 -9.8,3.3 -14.7,4.9 -5.6,3.2 -11.4,6.2 -17.3,8.9 -2.7,1.2 -5.7,0.4 -6.9,-2 -0.3,-0.2 -0.7,-0.5 -1,-0.9 -2.5,-3 -4.7,-6 -6.8,-9.2 -1.3,-1.6 -2.5,-3.4 -3.3,-5.4 0,0 0,0 0,0 -3.4,-5.9 -6.1,-12.1 -8.2,-18.7 -0.1,-0.3 -0.1,-0.6 -0.2,-0.8 -2.5,-7.2 -2,-13.7 0.3,-20.9 z"
   id="path330" />
			<path
   fill="#ecbe7b"
   d="m 534.1,813.9 c 2.5,-10 15.2,-10.3 21.5,-16.4 1.2,-1.2 2.8,-1.6 4.3,-1.4 0.6,-0.6 1.4,-1.1 2.6,-1.3 6.7,-1.2 10.3,3.6 14.5,8.1 5.3,5.7 10.7,11.4 16,17.1 2.2,2.4 1.8,6.2 -1,7.9 -5.5,3.3 -11.8,4.4 -17.6,7 -6.1,2.6 -11.8,6.2 -17,10.4 -4,3.3 -9.1,0.1 -8.4,-4.9 1.7,-11 -17.7,-15.1 -14.9,-26.5 z"
   id="path332" />
			<path
   fill="#ecbe7b"
   d="m 609.7,817 c 4.1,2.7 9.5,1.6 13.9,4 4.7,2.6 10.3,5.8 15.7,3.3 5.7,-2.6 6.5,-11.7 8.1,-17 1.7,-5.5 6.3,-14.3 3.6,-19.9 -2.5,-5.2 -10.9,-9.1 -15.7,-11.6 -6.3,-3.2 -12.9,-5.6 -19.8,-7.2 -4.1,-0.9 -6.6,2.8 -6.2,5.9 -0.3,0.5 -0.4,1.2 -0.5,1.9 -0.7,8.3 -1.4,16.6 -2.2,24.8 -0.4,5.3 -2.2,12.3 3.1,15.8 z m 30.6,-20.7 c -0.2,0.7 -0.4,1.3 -0.6,2 0.6,-2.3 1.2,-4.7 1.3,-7.1 0.2,0.2 0.3,0.4 0.4,0.5 0,0.2 0,0.4 0,0.9 0.1,1 -0.8,2.7 -1.1,3.7 z"
   id="path334" />
			<path
   fill="#ecbe7b"
   d="m 787.1,781.3 c 3.1,-8.3 6.3,-16.6 9.4,-24.8 1.2,-3.3 4.2,-4.3 7.3,-3 7.8,3.4 14,9.5 17.5,17.2 0.3,0.6 0.4,1.2 0.5,1.8 1.5,1 2.5,2.8 1.9,5.2 l -7.6,29.9 c -1.1,4.4 -6.9,4.7 -9.1,1.2 -2.5,-3.9 -5.2,-7.5 -8.3,-11 -2.8,-3.1 -7.1,-6 -9.1,-9.7 -0.2,-0.5 -0.4,-0.9 -0.6,-1.4 -1.7,-0.9 -2.8,-2.8 -1.9,-5.4 z"
   id="path336" />
			<path
   fill="#ecbe7b"
   d="m 675.1,707.7 c 3.4,-11.9 7.4,-23.6 11.7,-35.2 0,-1.3 -0.1,-2.6 -0.1,-4 -0.1,-2 0.7,-3.3 2,-4.1 1.5,-1.7 3.9,-2.6 6,-1.2 1.3,-0.1 2.6,0.3 3.7,1.4 12.7,12.4 26,24.3 39.9,35.5 1.3,1.1 1.8,2.3 1.7,3.5 1.2,1.3 2.2,2.6 3.2,4 1.5,2.2 0.4,5.6 -1.8,6.8 -3.7,2 -7.8,2.9 -11.8,4.2 -4.2,1.5 -8.3,3.4 -12.1,5.7 -7.7,4.6 -14.5,10.6 -19.9,17.8 -2.8,3.7 -9.4,2.9 -9.3,-2.5 0.1,-6 -2,-11.2 -5.2,-16.2 -2.1,-3.2 -5.8,-6.6 -6,-10.5 -1.7,-0.8 -2.7,-2.7 -2,-5.2 z"
   id="path338" />
			<path
   fill="#ecbe7b"
   d="m 592,564.8 c 9,8.1 17.1,16.9 24.3,26.6 1.8,2.5 5.4,3.5 7.9,1 4.8,-5 10,-9.4 15.9,-13 4.3,-2.6 13,-4.8 13,-11 0,-2.9 -2.7,-5.4 -4.4,-7.5 -2.5,-3.1 -5,-6.2 -7.4,-9.3 L 626.4,533 c -2.1,-2.6 -5,-1.9 -6.7,0 -1.8,-2.3 -5.2,-3.1 -7.5,-0.7 -7.9,8.1 -14.8,16.9 -20.8,26.5 -1.3,1.7 -1,4.5 0.6,6 z m 47.2,-0.2 c 0.7,0.9 1.5,1.8 2.1,2.8 -0.6,0.3 -1.1,0.6 -1.7,1 0.1,-0.6 0.1,-1.3 0,-2.1 -0.1,-0.6 -0.2,-1.2 -0.4,-1.7 z m -9.1,9.4 c 0.7,-0.7 1.3,-1.4 1.9,-2.1 0.2,0.1 0.5,0.3 0.7,0.3 -0.8,0.6 -1.7,1.2 -2.6,1.8 z"
   id="path340" />
			<path
   fill="#ecbe7b"
   d="m 658.3,609.3 c 3.6,-4.5 8,-9.2 11.1,-14.4 1.9,0.9 3.8,1.8 5.7,2.9 0.1,0.6 0.2,1.2 0.2,1.8 0.5,4.3 1.1,8.6 1.8,12.9 1,6.7 4,15.5 2.4,22.2 -0.2,0.9 -0.2,1.7 0,2.4 -0.2,0.3 -0.4,0.5 -0.6,0.8 -2.5,3.1 -4.6,6.6 -6.8,9.9 -2.8,4.4 -5.5,10.1 -8.8,14.9 -3.1,0.3 -6.2,0.5 -9.3,0.7 -2.3,-7.8 -5.9,-15.2 -8.6,-23 -1.3,-3.6 -2.1,-7.5 -3.2,-11.1 5.6,-6.5 10.8,-13.3 16.1,-20 z"
   id="path342" />
			<path
   fill="#ecbe7b"
   d="m 691.5,877 c 2.7,2.2 5.3,4.4 8.1,6.4 2.2,-9.7 5.4,-19.1 9.9,-28 2.3,-4.5 4.9,-8.7 7.5,-12.9 1.9,-3 3.3,-6.7 0.9,-9.9 -2.8,-3.7 -9,-5.8 -13,-7.9 -4.9,-2.7 -9.8,-5.4 -14.7,-8.1 -0.7,-0.4 -1.4,-0.8 -2.1,-1.2 -0.2,3.6 -0.5,7.2 -0.9,10.8 0.1,9.2 0.6,18.4 1.2,27.6 0.6,7.8 2.5,15.5 3.1,23.2 z m 4.8,-16.5 c 0,-0.2 -0.1,-0.4 -0.1,-0.5 0.3,-0.4 0.6,-0.9 0.9,-1.3 -0.3,0.5 -0.6,1.1 -0.8,1.8 z"
   id="path344" />
			<path
   fill="#ecbe7b"
   d="m 604.8,934.5 c -0.4,0.2 -0.8,0.4 -1.1,0.7 -0.4,0.1 -0.7,0.2 -1.1,0.3 -1.3,-1.9 -2.8,-3.7 -4.3,-5.4 4.9,-6.8 7.8,-15 12.7,-21.8 4.7,-6.5 9.6,-12.7 13.5,-19.7 0.4,0.3 0.7,0.5 1.1,0.8 5.5,4.4 10.6,9.4 15.5,14.5 4.2,4.3 8.3,8.8 12.2,13.3 -16.1,5.7 -32.8,10.1 -48.5,17.3 z"
   id="path346" />
			<path
   fill="#ecbe7b"
   d="m 839.8,832.9 c 4.4,-5.9 9.1,-11.6 13.6,-17.4 0.7,-0.9 1.7,-1.4 2.8,-1.5 2.2,-1.7 5.5,-1.9 7,1.4 4.3,9.7 8.6,19.4 13,29.1 1.3,2.8 0.4,6.5 -3,7.3 -3.7,0.9 -7.3,1.7 -11,2.4 -2.9,0.5 -6.4,1.5 -9.3,0.8 -2.5,-0.6 -3.8,-2.1 -5.1,-4.2 -1.7,-2.7 -3.4,-4.6 -5.9,-6.5 -4.4,-3.1 -5.4,-7 -2.1,-11.4 z"
   id="path348" />
			<path
   fill="#ecbe7b"
   d="m 824.3,914 c 5.8,3.7 11.5,7.5 17.4,11 4.5,2.7 9,2.6 11.9,-2.2 3.3,-5.5 5.7,-11.9 7.7,-17.9 1.8,-5.3 1.2,-8.8 -2.7,-12.8 -4.1,-4.4 -8.7,-8.4 -13.5,-12.1 -4.5,-3.4 -8.9,-6.4 -14.7,-4.9 -1.6,0.4 -2.6,1.4 -3.2,2.5 -1.2,0.5 -2.3,1.6 -2.8,3.1 -0.9,2.8 -1.8,5.6 -2.7,8.4 -0.3,0.4 -0.5,0.9 -0.6,1.5 -0.1,0.4 -0.2,0.9 -0.2,1.3 -1,3.2 -2,6.4 -2.9,9.6 -1.8,6.7 0.8,9 6.3,12.5 z m 19.2,0.3 c 0.1,-0.1 0.3,-0.1 0.4,-0.2 0.9,0.5 1.9,0.8 2.9,0.8 -0.2,0.4 -0.4,0.9 -0.7,1.3 -0.9,-0.6 -1.9,-1.3 -2.6,-1.9 z m 3.6,-19.9 c 0.5,0.4 0.9,0.8 1.4,1.3 -0.1,0 -0.2,0.1 -0.3,0.2 -0.4,-0.5 -0.8,-1 -1.1,-1.5 z"
   id="path350" />
			<path
   fill="#ecbe7b"
   d="m 908.3,924.3 c 0.5,5.7 8.8,9.9 12.8,13.1 4.3,3.5 10.2,10.7 16.4,7.5 2.9,-1.5 5.3,-4.9 7.5,-7.3 2.5,-2.8 4.9,-5.6 7.3,-8.4 4,-4.8 8.7,-10.1 9.1,-16.6 0.4,-6.9 -4.5,-11.6 -8.8,-16.4 -5.2,-5.9 -10.4,-11.9 -15.7,-17.8 -1.9,-2.2 -4.4,-1.9 -6.1,-0.6 -2.4,-2.1 -7.1,-1.9 -8.5,2.1 -2.7,8.1 -5.4,16.2 -8.1,24.3 -1.2,3.7 -2.5,7.5 -3.7,11.2 -0.9,2.8 -2.5,5.9 -2.2,8.9 z m 43.1,-11.9 c -0.1,-0.3 -0.2,-0.5 -0.3,-0.8 0.1,-0.3 0.1,-0.6 0.2,-1 0,0 0,0.1 0,0.1 0.2,0.7 0.2,1.2 0.1,1.7 z"
   id="path352" />
			<path
   fill="#ecbe7b"
   d="m 887.4,985.6 c 5,-8.1 10.4,-16.2 14.9,-24.6 0.2,-0.3 0.4,-0.6 0.6,-0.9 1.2,0.5 2.3,1.2 3.3,2.1 4.4,7.9 10.2,14.8 14.9,22.6 -3,3.2 -6.2,6.3 -9.5,9.4 -6.1,5.7 -12.5,11.9 -19.5,16.7 -0.3,-0.4 -0.6,-0.8 -0.8,-1.3 -1.4,-0.5 -2.6,-1.6 -3.2,-3.3 -0.8,-2.3 -1.9,-4.4 -3.3,-6.4 -0.6,-0.9 -0.8,-1.8 -0.8,-2.7 -0.2,-0.4 -0.3,-0.7 -0.4,-1.1 -1,-3.9 1.9,-7.4 3.8,-10.5 z"
   id="path354" />
			<path
   fill="#ecbe7b"
   d="m 901.7,848.2 c 0,0.7 0,1.5 0.2,2.3 0,0.1 0.1,0.2 0.1,0.3 0.3,1.9 0.8,3.8 1.2,5.8 0.3,1.5 1.1,2.5 2,3.1 0,0.2 0.1,0.4 0.1,0.7 0.5,3.8 3.8,6.1 7.5,4.3 4.6,-2.2 9.1,-4.4 13.7,-6.7 2.9,-1.4 5.5,-2.9 6.4,-6.3 0.9,-3.5 -0.4,-7.7 -1.1,-11.1 -1,-5 -2.2,-10 -3.6,-14.9 -0.4,-1.5 -1.3,-2.5 -2.4,-3 -1.9,-2.2 -6,-2.7 -8.4,0.4 -4.6,6 -9.6,11.9 -13.9,18.2 -1.6,2.2 -2,4.5 -1.8,6.9 z m 13.4,4.2 c -0.4,0.2 -0.9,0.4 -1.3,0.7 -0.1,-0.2 -0.1,-0.4 -0.2,-0.5 0.5,-0.1 1,-0.1 1.5,-0.2 z"
   id="path356" />
			<path
   fill="#ecbe7b"
   d="m 835.8,967.3 c 4.5,-4.6 7.7,-9.2 10.9,-14.7 3,-5.1 6.4,-9.7 11.6,-12.7 0.4,-0.3 0.9,-0.4 1.4,-0.5 0.2,0.4 0.3,0.8 0.5,1.1 0.4,7.5 1.6,15 2.2,22.5 0.3,3.8 0.9,7.4 1.8,11.2 0.4,2 1.3,4.6 1.3,6.9 -1.8,1.7 -3.6,3.3 -5.3,4.9 -4.7,4.4 -9.3,8.8 -14,13.3 -1.8,1.7 -5.3,2.1 -7.1,0 -2.3,-2.8 -4.6,-5.7 -6.7,-8.6 -1.9,-2.6 -4.5,-5.5 -5,-8.7 -0.9,-5.8 4.8,-11 8.4,-14.7 z"
   id="path358" />
			<path
   fill="#ecbe7b"
   d="m 564.4,893.5 c 0,3.1 3.2,5.8 6.3,4.8 5.5,-1.8 11,-3.6 16.5,-5.5 4,-1.3 8.4,-2.5 11.4,-5.7 3,-3.1 3.9,-7.7 5.3,-11.6 1.8,-5.2 4,-10.2 6.5,-15.1 1.3,-2.5 0.4,-4.8 -1.3,-6.2 -0.7,-3 -4.6,-5.3 -7.5,-3.5 -9.8,6.1 -20.1,10.8 -30.3,16.2 -9.5,5 -6.9,17.6 -6.9,26.6 z m 11,-7.3 -1.1,0.3 c 0,-0.4 0,-0.8 0,-1.2 0.3,0.4 0.7,0.7 1.1,0.9 z"
   id="path360" />
			<path
   fill="#ecbe7b"
   d="m 633.8,967.7 c 4.3,-7.4 11.5,-13.3 17.3,-19.5 3.6,-3.8 7.2,-7.6 10.8,-11.5 2.4,-2.6 4.9,-6 8.5,-7.1 3.2,-1 5.4,-0.1 6.7,1.6 1.2,0.5 2.2,1.5 2.4,3.3 1,6.5 1.7,12.9 2,19.5 0.2,4.9 1.3,11.4 -4.4,13.4 -5.3,1.9 -11.9,2.1 -17.5,3.2 -6.8,1.4 -13.5,2.9 -20.3,4.5 -4,0.9 -7.8,-3.6 -5.5,-7.4 z"
   id="path362" />
			<path
   fill="#ecbe7b"
   d="m 997,889.3 c 0,0 0.1,-0.1 0.1,-0.1 6.4,7.1 11.9,14.9 19.5,20.8 -3.8,5 -8.4,9.4 -12.5,14.2 -3.9,4.7 -7,10.3 -11.1,14.9 -3.6,-10.1 -6.5,-20.5 -9,-31 3.9,-6.5 8.2,-12.8 13,-18.8 z"
   id="path364" />
			<path
   fill="#ecbe7b"
   d="m 978.2,979 c 6,-9.4 12.3,-18.6 18.9,-27.7 1,-1.4 2.4,-2.1 3.9,-2.3 2.2,-1.2 5.1,-1.1 6.9,1.6 2.5,3.9 6.5,8.3 7.9,12.8 1.2,3.7 -1.1,7.7 -3.7,10.3 -3,3 -6.9,4.7 -10.9,6 -5.6,1.8 -10.9,3.6 -16.2,6.1 -4.1,2.1 -9.6,-2.2 -6.8,-6.8 z"
   id="path366" />
			<path
   fill="#ecbe7b"
   d="m 940.6,960.2 c 6.9,-10.8 14.5,-21.2 22.6,-31.1 2.2,-2.7 7.8,-1.4 8.4,2.2 0.1,1 0.2,2 0.3,3 0.8,0.8 1.3,1.9 1.3,3.4 -0.1,7.9 6.8,15.4 2.6,23 -4.3,7.9 -10.9,15.1 -16.2,22.3 -2,2.8 -6.8,3.7 -8.6,0 -3,-6.2 -6.5,-12.1 -10.4,-17.8 -1,-1.3 -0.9,-3.6 0,-5 z"
   id="path368" />
			<path
   fill="#ecbe7b"
   d="m 1018.9,930 c 6.7,-9.7 12.8,-19.8 18.3,-30.3 1,-1.8 2.5,-2.5 4,-2.5 1,-0.5 2.2,-0.6 3.3,-0.2 7.9,2.8 10.5,10.1 16.5,15.2 1.6,1.4 1.9,4.3 0.8,6.1 -7,11 -14,22.1 -21,33.1 -2.2,3.4 -6.4,3 -8.6,0 -4,-5.2 -8.2,-10.3 -12.5,-15.3 -1.4,-1.6 -2.1,-4.2 -0.8,-6.1 z"
   id="path370" />
			<path
   fill="#ecbe7b"
   d="m 1051.8,867.7 c 0.8,-1.1 2,-1.9 3.4,-2.3 1.4,-1.6 3.7,-2.5 6.2,-1.3 9.7,5 18.3,11.8 26.5,18.9 3.1,2.7 7,5.2 5.5,9.9 -1.8,5.5 -5.9,10.9 -8.7,16 -1.9,3.5 -6.6,3 -8.6,0 -5.6,-8.2 -12.6,-15.4 -20.7,-21.1 -2.9,-2 -7.3,-3.6 -8.7,-7.1 -1.7,-4.4 2.6,-9.6 5.1,-13 z"
   id="path372" />
			<path
   fill="#ecbe7b"
   d="m 1089.3,851.4 c 0.6,4.1 4,7.7 6.5,10.8 2.8,3.4 5.9,6.4 9.2,9.2 2.6,2.2 7.6,1.8 8.4,-2.2 0.8,-4.2 1.8,-8.4 3.3,-12.4 1.2,-3.2 3.5,-6.5 2.7,-10.1 -0.7,-3.6 -3.9,-7.6 -5.7,-10.8 -2.2,-3.8 -4.5,-7.6 -6.7,-11.4 -0.3,-0.5 -0.8,-1 -1.2,-1.3 -2.4,-2.8 -7.6,-2.9 -8.6,1.7 -1.1,4.9 -2.4,9.6 -4.2,14.3 -1.6,3.8 -4.4,7.9 -3.7,12.2 z m 16.2,7.2 c -0.2,-0.2 -0.4,-0.4 -0.6,-0.6 0.3,0 0.6,0 0.8,-0.1 0,0.3 -0.1,0.5 -0.2,0.7 z"
   id="path374" />
			<path
   fill="#ecbe7b"
   d="m 1104.9,775.7 c 6.6,-1 13.2,-1.7 19.8,-2.6 1.9,0.4 3.8,0.8 5.8,1 2.7,0.3 5,2.1 5,5 0.2,11.4 0.3,22.8 0.5,34.2 -9.4,-3.9 -18.3,-8.7 -27.7,-12.6 -3.1,-1.3 -6.3,-2.4 -9.4,-3.7 -1.7,-1.1 -3.4,-2.1 -5.2,-3 -0.9,-2.6 -0.8,-5.4 -0.8,-8.4 0,-3.2 -0.1,-6.4 -0.1,-9.5 4.2,-0.4 8.7,0.1 12.1,-0.4 z"
   id="path376" />
			<path
   fill="#ecbe7b"
   d="m 1119.1,745.8 c 5.9,-14.3 12.7,-28.2 20.6,-41.5 1.9,-3.2 6.8,-3.3 8.6,0 1.8,3.3 3.9,6.4 6.3,9.2 0.8,0.2 1.7,0.7 2.4,1.5 5.6,6.3 11.4,12.5 17.3,18.6 2.4,2.5 1.6,5.9 -1,7.9 -4.1,3.1 -8.2,6.1 -12.3,9.2 -3.1,2.3 -6.1,5.1 -9.9,6 -4.2,0.9 -8.8,-0.7 -12.8,-1.5 -5.2,-1 -10.4,-2.1 -15.7,-3.1 -2.4,-0.7 -4.4,-4 -3.5,-6.3 z"
   id="path378" />
			<path
   fill="#ecbe7b"
   d="m 1076.6,708.1 c -4.8,-1.6 -9.9,-2.7 -14.6,-4.1 -2.8,-0.8 -5.2,0.8 -6.2,3.3 -5.2,12.2 -9.8,24.6 -13.7,37.3 -1.3,4.3 3.2,7.6 7.1,5.9 9.9,-4.4 20.2,-7.5 30.9,-9.5 z"
   id="path380" />
			<path
   fill="#ecbe7b"
   d="m 1150.3,675.8 c 7,3 14.2,7.1 21.5,9.2 6.7,1.9 10.8,-4.3 14.8,-8.7 2.5,-2.8 6.1,-5.9 7.4,-9.5 0.9,-1.4 1.1,-3.1 0.1,-5 0,0 0,0 0,0 -0.2,-0.6 -0.5,-1.2 -0.9,-1.8 -0.3,-0.5 -0.6,-0.9 -0.9,-1.3 -5,-8.2 -11.7,-16.1 -18.2,-22.9 -2.2,-2.3 -6.3,-1.8 -7.9,1 -1.5,2.7 -2.9,5.4 -4.2,8.1 -5,7.7 -9.5,15.7 -13.4,24 -1.2,2.3 -1,5.8 1.7,6.9 z m 9.3,-6.7 c 0.2,-0.3 0.3,-0.6 0.5,-1 0.2,0.5 0.4,1 0.6,1.4 z"
   id="path382" />
			<path
   fill="#ecbe7b"
   d="m 1058.6,666.4 c 0.8,-6 5.3,-7.6 10.4,-9.8 12,-5.1 24.1,-10.1 36.2,-15 3.9,-1.6 8.2,4 5.6,7.3 -0.2,0.2 -0.4,0.5 -0.5,0.7 0.2,1 0.1,2.2 -0.5,3.4 -2.7,5.2 -5.5,10.4 -8.2,15.6 -2.2,4.1 -4.1,10.3 -7.7,13.3 -3.2,2.7 -8.3,2.7 -12.2,3.5 -5.8,1.1 -11.7,2.3 -17.5,3.4 -3,0.6 -6.5,-1.4 -6.3,-4.8 0,-5.7 -0.1,-11.8 0.7,-17.6 z"
   id="path384" />
			<path
   fill="#ecbe7b"
   d="m 1099.2,610.3 c 2.9,-8 5.2,-16.1 7,-24.3 0.1,-0.6 0.4,-1.1 0.7,-1.5 0,-3.2 4.5,-6.2 7.8,-3.3 4.9,4.3 9.7,8.5 14.6,12.8 3.3,2.9 8.8,6.1 6.8,11.2 -1.6,4.3 -6.5,8.1 -9.6,11.3 -4.2,4.3 -8.4,8.5 -12.6,12.8 -2.2,2.2 -5.3,1.3 -7,-0.9 -2.5,-3.3 -5.8,-6.7 -7.8,-10.3 -1.5,-2.8 -0.8,-5.1 0.1,-7.8 z"
   id="path386" />
			<path
   fill="#ecbe7b"
   d="m 1125.2,554.9 c 0.8,-3 3.1,-5.8 4.6,-8.5 l 6.6,-11.3 c 1.2,-2 3.9,-2.9 6.1,-2.2 1.5,-0.5 3.3,-0.2 4.8,1.2 4.2,3.9 13.9,13.1 12.2,19.7 -0.8,3.3 -4.7,6.3 -6.8,8.7 -3.3,3.8 -6.7,7.5 -10,11.3 -2.3,2.6 -6.1,1.4 -7.9,-1 -2.3,-3.3 -4.7,-6.6 -7,-10 -1.9,-2.4 -3.5,-4.8 -2.6,-7.9 z"
   id="path388" />
			<path
   fill="#ecbe7b"
   d="m 1162.2,602 c 5.8,-11.2 12.3,-22 19.3,-32.4 1.2,-1.8 2.8,-2.5 4.4,-2.4 2.5,-1.7 6.7,-1.2 7.8,2.6 2.5,8.2 4.8,16.5 7.5,24.7 1.1,3.3 -1.7,6.1 -4.8,6.3 -9.7,0.7 -18.9,3.4 -27.4,8 -4.4,2.4 -9.1,-2.4 -6.8,-6.8 z"
   id="path390" />
			<path
   fill="#ecbe7b"
   d="m 1064.2,538.3 c 5.7,-12.5 12.8,-24.6 20,-36.3 1.7,-2.7 4.6,-2.8 6.8,-1.6 2.4,-0.6 4.9,0.4 5.6,3.4 2.8,13.7 5.3,27.4 7.5,41.2 0.9,5.4 1.7,9.8 -3.5,13 -3.7,2.3 -11.1,6.9 -15.4,4.8 -2.5,-1.2 -4.9,-3.8 -7.1,-5.5 l -9.1,-7.1 c -4.5,-3.3 -7.4,-6.2 -4.8,-11.9 z"
   id="path392" />
			<path
   fill="#ecbe7b"
   d="m 1109.2,513.2 c -0.1,4.2 4.2,5.7 7.5,4.3 6,-2.6 11.9,-5.5 17.6,-8.8 3.9,-2.2 9,-4.6 7.7,-10 -1.2,-4.8 -6.4,-9.7 -9.4,-13.5 -3.9,-4.8 -7.8,-9.4 -10.4,-15 -2.1,-4.6 -7.9,-2.4 -9,1.5 -1.4,0.9 -2.4,2.4 -2.6,4.1 -0.6,12.5 -1.1,24.9 -1.4,37.4 z m 21.3,-14.4 c 0.1,0.2 0.3,0.4 0.4,0.6 -0.3,0.2 -0.7,0.4 -1,0.6 0.3,-0.3 0.5,-0.7 0.6,-1.2 z"
   id="path394" />
			<path
   fill="#ecbe7b"
   d="m 1049.5,451.7 c 0.7,3.4 4.3,6.3 6.1,9.2 1.9,3 3.5,6.1 5.1,9.2 3.6,7 7.4,13.9 13.2,19.4 2.8,2.6 7.3,1.5 8.4,-2.2 2.6,-8.9 2.5,-18.1 2.6,-27.3 0.1,-9.9 0.1,-19.8 0,-29.7 0,-2.2 -1.2,-3.7 -2.8,-4.4 -0.4,-1.7 -1.5,-3.2 -3.4,-3.4 -7,-1.1 -17.8,-4.1 -21.6,3.7 -1.8,3.8 -2.8,8.1 -4.2,12.1 -1.3,3.8 -4.3,9.1 -3.4,13.4 z m 24.9,22.6 c -0.5,-0.8 -1,-1.6 -1.4,-2.4 0.5,0.1 1.1,0.1 1.6,0 -0.1,0.8 -0.1,1.6 -0.2,2.4 z"
   id="path396" />
			<path
   fill="#ecbe7b"
   d="m 992.5,434.7 c 0.2,0.5 0.6,1 1,1.5 2.3,2.7 6.6,4.4 9.6,6.2 4.3,2.6 8.7,5.3 13,7.9 2.3,1.4 5.5,0.5 6.8,-1.8 5.1,-8.6 10.6,-16.9 16.6,-24.9 1.7,-2.2 1,-4.4 -0.6,-5.8 0.4,-1.5 0.1,-3.1 -1.4,-4.5 -6,-5.3 -12,-10.6 -18,-16 -0.6,-1.3 -1.8,-2.3 -3.2,-2.8 -1.5,-2.6 -5.1,-4 -7.5,-1 -8.2,9.9 -13.6,22.5 -19.8,33.7 -1.9,3.6 0.6,6.8 3.5,7.5 z m 21.7,-21.8 c 0.1,0.3 0.2,0.5 0.3,0.8 -0.3,0.2 -0.7,0.4 -0.9,0.7 0,-0.1 0.1,-0.3 0.1,-0.4 z m 2.8,26.3 -0.8,-0.5 c 0.4,0 0.8,0 1.1,-0.1 -0.1,0.2 -0.2,0.4 -0.3,0.6 z"
   id="path398" />
			<path
   fill="#ecbe7b"
   d="m 962.3,460.1 c 0.7,-2.8 1.7,-5.5 3,-7.9 0,-1.2 0.4,-2.4 1.5,-3.4 0.5,-0.5 1.1,-1 1.6,-1.5 1.3,-1.7 2.7,-3.3 4.4,-4.8 0.7,-0.7 1.5,-1.1 2.3,-1.2 3.9,-2.9 8.1,-4.2 12.6,-0.6 7.9,6.5 14.8,14.5 22.1,21.7 2.5,2.5 1.5,5.7 -0.6,7.4 0.1,3.1 -2.3,6.3 -6.2,5.2 -12.3,-3.6 -24.7,-6.5 -37.2,-8.7 -2.7,-0.6 -4.1,-3.8 -3.5,-6.2 z"
   id="path400" />
			<path
   fill="#ecbe7b"
   d="m 1023.2,491.1 c 1.4,-2.7 4,-5.1 5.9,-7.6 2.7,-3.3 5.4,-6.6 8.1,-9.9 0.9,-1.1 2.2,-1.5 3.5,-1.5 2.2,-2.5 7.4,-2.5 9,1.7 1.5,3.8 2.9,7.6 4.4,11.4 1.3,3.3 2.2,5.9 0.1,9 -4.4,6.4 -11.1,11.9 -16.4,17.5 -2.8,3 -7.1,1.1 -8.4,-2.2 -1.5,-3.7 -3.4,-6.9 -5.5,-10.4 -1.4,-2.6 -2.3,-5.1 -0.7,-8 z"
   id="path402" />
			<path
   fill="#ecbe7b"
   d="m 962.1,358.4 c 0,13.4 0.9,26.7 2.7,40 0.8,5.7 7.7,6.7 9.8,1.3 l 3.9,-9.6 c 3,-3.6 5.9,-7.3 8.6,-11.1 3.1,-4.3 7.2,-9 8,-14.4 0.4,-2.7 -1.1,-4.8 -3.1,-5.7 -0.8,-1 -2,-1.6 -3.6,-1.7 -6.3,-0.2 -11.6,-6 -18.1,-5.7 -1.7,0.1 -3.1,0.9 -4.1,2.1 -2.2,0.3 -4.1,1.9 -4.1,4.8 z m 21.6,8 c -0.2,0.3 -0.4,0.7 -0.6,1 -0.1,-0.4 -0.2,-0.9 -0.3,-1.3 0.4,0.1 0.7,0.2 0.9,0.3 z"
   id="path404" />
			<path
   fill="#ecbe7b"
   d="m 1018.3,363.8 c 5.5,3.8 12.2,5.8 17.8,9.5 4.2,2.8 7.9,6.1 11.8,9.2 1.4,1.1 2.8,2.1 4.3,3.2 -4.3,1.3 -8.7,2.6 -13,4.1 -3.8,1.3 -8,3.6 -12,3.7 -1.6,0.1 -3.6,-1 -4.3,-2.5 -2.7,-6.2 -2.6,-14.7 -3.5,-21.4 -0.1,-0.5 -0.1,-0.9 0,-1.4 -1.5,-1.1 -1.7,-2.8 -1.1,-4.4 z"
   id="path406" />
			<path
   fill="#ecbe7b"
   d="m 892.1,389.6 c 2.9,4.6 6.3,8.9 9.4,13.4 1.9,2.7 5.4,3.4 7.9,1 5.2,-5 10.4,-9.9 15.6,-14.9 3.5,-3.4 9.5,-7.2 10.4,-12.4 0.9,-5.1 -2.8,-11 -5.5,-15.1 -3.2,-4.9 -7.2,-9.4 -11.1,-13.8 -1.7,-1.9 -3.8,-1.9 -5.5,-1 -1.9,-0.5 -3.9,0.1 -5.1,2.3 -5.3,9.9 -10.6,19.9 -15.9,29.8 -2,4.1 -2.6,6.8 -0.2,10.7 z m 27.2,-8.9 c -0.7,0.6 -1.3,1.3 -2,1.9 0,0 0,-0.1 0,-0.1 0.2,-0.1 0.4,-0.3 0.5,-0.4 0.9,-0.8 1.6,-1.8 2.1,-2.9 0.3,0.2 0.5,0.3 0.8,0.4 -0.5,0.4 -1,0.8 -1.4,1.1 z"
   id="path408" />
			<path
   fill="#ecbe7b"
   d="m 901.8,441.8 c 5.8,-0.2 11.5,-0.5 17.2,-0.9 4.6,-0.3 9.9,-0.2 14.3,-1.7 3.9,-1.4 7,-5.2 9.9,-7.9 4,-3.7 7.9,-7.3 11.9,-11 1.6,-1.5 1.9,-4.3 0.8,-6.1 -3.4,-5.5 -5.9,-11.1 -7.6,-17.4 -0.7,-2.8 -3.1,-3.8 -5.3,-3.5 -1.7,-0.9 -3.9,-1 -5.8,0.7 -3.6,3.1 -7.2,6.1 -11.2,8.7 -3.4,2.2 -6.6,4.3 -9.2,7.4 -6.4,7.5 -12.4,15.4 -18.6,23.1 -2.4,3.2 -1.1,8.7 3.6,8.6 z m 28.1,-12.2 c 0,-0.1 0,-0.1 0,0 1.8,-1 3.4,-2.6 4.1,-4.6 0.2,-0.1 0.4,-0.3 0.5,-0.4 0.4,0.1 0.9,0.1 1.3,0.2 -1.8,1.8 -3.7,3.7 -5.9,4.8 z"
   id="path410" />
			<path
   fill="#ecbe7b"
   d="m 834.2,379.9 c 3.8,3.7 7.4,7.6 10.7,11.8 2,2.5 6.5,1.6 7.9,-1 2.9,-5.5 6.2,-10.7 10.1,-15.4 2.9,-3.4 7.7,-6.6 9.5,-10.8 2.2,-4.9 -0.8,-9 -4.3,-12.2 -5,-4.6 -10.2,-9.1 -15.2,-13.7 -1.2,-1.1 -2.6,-1.4 -3.8,-1.3 -2.1,-0.8 -4.7,-0.5 -6.2,1.9 -5.9,8.8 -10.5,18.7 -12.7,29.1 -1.2,5.1 0.3,8 4,11.6 z m 27.9,-18.3 c -0.5,0.5 -1,1 -1.5,1.5 0.2,-0.3 0.4,-0.6 0.6,-1 0.3,-0.7 0.5,-1.4 0.6,-2.1 0.4,0.3 0.8,0.7 1.1,0.8 -0.3,0.3 -0.5,0.5 -0.8,0.8 z"
   id="path412" />
			<path
   fill="#ecbe7b"
   d="m 854.1,431.1 c 2.1,-8.7 5.6,-16.9 10,-24.7 2,-3.5 6.5,-2.9 8.6,0 2.5,3.3 4.3,6.8 5.6,10.5 1.2,2.3 2.4,4.7 3.7,7 1.7,3.2 4.4,6.8 3.4,10.7 -0.9,3.1 -3.9,5.8 -6,8.1 -2.9,3.2 -6.1,6.1 -9.3,8.9 -2,1.7 -5.1,2.1 -7.1,0 -2.9,-3.2 -6.7,-6.4 -9,-10.1 -2,-3.2 -0.8,-7 0.1,-10.4 z"
   id="path414" />
			<path
   fill="#ecbe7b"
   d="m 873.5,319.3 c 9.9,0.5 19.7,2.2 29.1,5.2 3.9,1.2 4.2,5.5 2.4,8.1 -0.1,0.7 -0.3,1.4 -0.9,2.2 -0.3,0.3 -0.5,0.7 -0.8,1 0,0 0,0 0,0 -0.1,0.1 -0.1,0.1 -0.2,0.2 -4.1,5.2 -8.9,9.5 -14.8,12.8 -0.8,0.5 -1.7,0.7 -2.5,0.7 -1.3,1.1 -2.6,2.1 -4,3 -3.3,2 -7.4,-0.6 -7.5,-4.3 -0.3,-7.4 -3.7,-15.3 -5.7,-22.4 -0.8,-3.2 1.6,-6.7 4.9,-6.5 z"
   id="path416" />
			<path
   fill="#ecbe7b"
   d="m 750.4,350 c -0.1,3.8 3.6,6.6 5.5,9.5 2.6,3.8 4.4,7.8 5.7,12.2 0.9,3 4.6,4.8 7.3,3 3.6,-2.3 7.3,-4.2 11.1,-6.2 1.7,-0.9 0.4,-0.8 2.3,0.5 1.5,1 3.2,1.8 4.8,2.7 4.4,2.6 11.1,8.5 16,3.8 1,-1 1.9,-2.2 2.7,-3.6 10.5,-13.4 20.8,-27.3 24.8,-44.1 0.8,-3.4 -2.4,-7.5 -6.2,-6.2 -18.6,6.9 -37.5,13 -56.6,18.3 -5,1.5 -17.1,2.7 -17.4,10.1 z m 14.7,1.1 c 0,0 0,0 0,0 -0.2,0.5 -0.4,1.1 -0.5,1.8 -0.1,0.5 -0.1,0.9 -0.1,1.3 -0.3,-0.4 -0.5,-0.8 -0.8,-1.2 -0.2,-0.3 -0.6,-0.8 -1.1,-1.2 0.8,-0.2 1.6,-0.4 2.5,-0.7 z"
   id="path418" />
			<path
   fill="#ecbe7b"
   d="m 689,392.9 c 1,-5.2 1.7,-10.4 1.8,-15.7 0.1,-4.1 -1.2,-9.7 0.6,-13.6 1.6,-3.4 5.9,-4.8 9.1,-6.2 4.5,-2 9,-3.6 13.8,-4.8 0.9,-0.2 1.8,-0.2 2.5,0 1.8,-0.4 3.7,0.2 4.8,2.4 7.2,14.8 8.8,32.4 12,48.5 0.9,4.5 -3.3,7.5 -7.3,5.6 -10.8,-4.9 -22.1,-8.2 -33.8,-10.1 -2.8,-0.4 -3.9,-3.7 -3.5,-6.1 z"
   id="path420" />
			<path
   fill="#ecbe7b"
   d="m 751.7,406.8 c 1.2,-6.2 2.9,-12.2 5,-18.1 0.6,-1.6 1.7,-2.6 3,-3.1 1,-2.6 4,-4.5 7.1,-2.7 6.6,3.8 12.9,8 19,12.6 4.4,3.3 10.7,6.7 8.6,13.2 -1.1,3.3 -3.5,6.5 -5.1,9.6 -1.6,3.1 -3.1,6.3 -4.5,9.6 -3.1,7.2 -5.5,14.6 -7.6,22.1 -1.2,4.4 -6.8,4.6 -9.1,1.2 -3.5,-5.2 -7.1,-10.4 -10.6,-15.7 -2.7,-4 -6.8,-8.4 -7.4,-13.3 -0.7,-4.9 0.7,-10.6 1.6,-15.4 z"
   id="path422" />
			<path
   fill="#ecbe7b"
   d="m 804,416.8 c 0.6,-2.2 2.1,-3.5 3.9,-4.6 0,-1.9 1.1,-3.8 3.6,-4.4 7.4,-1.8 23.8,-3.7 25.9,6.4 1.1,5.2 1.3,10.7 1.6,16 0.2,4.6 0.3,9.1 -2.3,13 -1.4,2.1 -4.5,3.4 -6.8,1.8 -7.8,-5.3 -15,-11.4 -21.2,-18.5 -2.6,-2.6 -5.8,-5.7 -4.7,-9.7 z"
   id="path424" />
			<path
   fill="#ecbe7b"
   d="m 777.4,498.5 c 0,6 5,6.5 9.7,6.5 3.5,0 6.8,0.5 10.1,1.3 2.2,0.6 4.2,1.3 6.4,0.9 6.3,-1.2 4.9,-7.8 5.9,-12.5 1.1,-5.1 3,-13.4 7.4,-16.7 3.1,-2.3 2.5,-6.3 0.4,-8.4 0,-1.5 -0.7,-2.9 -2.4,-3.9 -3.4,-2 -6.7,-4.1 -10.1,-6.1 -1.9,-1.1 -3.8,-2.4 -6,-2.4 -5,-0.2 -9.5,4.6 -12.1,8.3 -3.3,4.7 -5,10.4 -6.2,16 -1,5.4 -3,11.5 -3.1,17 z m 21.7,-31 c 0.4,0.2 0.9,0.5 1.4,0.8 -1.1,-0.1 -2.3,0.1 -3.4,0.7 -0.1,0 -0.1,0.1 -0.2,0.1 0.3,-0.3 0.5,-0.5 0.8,-0.8 0.8,-0.4 1.2,-0.6 1.4,-0.8 z"
   id="path426" />
			<path
   fill="#ecbe7b"
   d="m 706.1,447.2 c 0.9,1.2 1.6,2.4 2.5,3.7 2.4,3.5 5,7.1 7.6,10.4 3.9,4.9 8.9,9.6 12.4,15 5.2,2.5 10.3,5.4 15.2,8.5 2.3,1.5 5,0.6 6.5,-1.4 -1.1,-3.5 -2.8,-7.1 -3.9,-10.4 -1.7,-5.4 -3.5,-10.7 -5.5,-16 -3.3,-8.8 -7,-18.2 -12,-26.3 -0.8,-0.3 -1.4,-0.9 -1.9,-1.6 -0.9,0.1 -1.8,0.5 -2.6,1.1 -3.8,3.1 -7.5,6.3 -11.1,9.8 -2.1,2.1 -5.1,4.5 -7.2,7.2 z m 33.7,23.6 c 0.4,-0.1 0.8,-0.3 1.2,-0.6 0,0.4 0.1,0.8 0.1,1.2 -0.4,-0.2 -0.9,-0.4 -1.3,-0.6 z"
   id="path428" />
			<path
   fill="#ecbe7b"
   d="m 495.9,662.1 c 13,-5.2 26.2,-0.5 38.8,3.8 4.4,1.5 8.8,2.6 11.5,-2.3 3,-5.6 4,-12.5 4.6,-18.7 0.4,-3.9 -3.2,-5.4 -6.2,-4.5 -12.2,-8.8 -25.2,-16.5 -38.7,-23.1 -2.6,-1.3 -6.8,-0.4 -7.3,3 -1.9,12.1 -4.8,24 -8.7,35.7 -1.3,3.3 2.4,7.5 6,6.1 z m 35.9,-7.6 c -0.6,-0.2 -1.1,-0.5 -1.6,-0.6 0.2,-0.1 0.4,-0.2 0.6,-0.4 0.2,0.1 0.3,0.3 0.5,0.4 0.1,0.1 0.3,0.2 0.4,0.3 0,0.1 0,0.2 0.1,0.3 z"
   id="path430" />
			<path
   fill="#ecbe7b"
   d="m 539,593.6 c 0.7,-4.5 7.2,-7 10.6,-9.1 5.3,-3.4 10.5,-6.7 15.8,-10.1 2.6,-1.7 5.1,-0.6 6.4,1.4 2.3,0.9 3.3,3.7 2.8,6 -2.5,12.6 -5.5,25.2 -8.9,37.6 -1.2,4.5 -6.7,4.5 -9.1,1.2 -3.5,-4.8 -7.1,-9.6 -10.6,-14.4 -2.6,-3.4 -7.7,-7.9 -7,-12.6 z"
   id="path432" />
			<path
   fill="#ecbe7b"
   d="m 550,451.4 c 0.2,0.2 0.3,0.5 0.4,0.7 0.4,0.5 0.7,1.2 0.9,2.1 0.8,4.4 2.5,9.4 2.3,14 -0.1,2.5 -0.1,3.8 0.7,6.4 0.7,2.5 1.4,4.9 2.1,7.4 1,3.5 -2.5,7.5 -6.2,6.2 0,0 -0.1,0 -0.1,-0.1 -7.5,0.1 -15,0.2 -22.5,0.4 -1.1,0 -2,-0.3 -2.8,-0.8 0,0 0,0 0,0 8.2,-12.4 15,-25.8 25.2,-36.3 z"
   id="path434" />
			<path
   fill="#ecbe7b"
   d="m 490.3,800.4 c -0.8,-2.2 -1.6,-4.3 -2.4,-6.5 -0.1,-0.5 -0.2,-0.9 -0.4,-1.4 -0.5,-1.9 -1.1,-3.8 -1.8,-5.6 2.6,-1.6 5.9,-2.6 8.2,-3.6 l 8.5,-3.8 c 2.3,-1 4.9,-2.7 7.5,-2.3 4.4,0.6 7.6,7 9.7,10.4 2.5,4.2 6,9.9 6.3,14.9 0.3,5.1 -4.9,8.5 -8.1,11.7 -4.9,4.8 -9.8,9.7 -14.7,14.5 -0.3,0.3 -0.7,0.6 -1,0.8 -1,-2.3 -2.5,-4.5 -3.5,-6.8 -2,-4.4 -3.6,-8.9 -5.1,-13.5 -1.1,-3 -2.1,-5.9 -3.2,-8.8 0,0 0,0 0,0 z"
   id="path436" />
			<path
   fill="#ecbe7b"
   d="m 1058.6,835.8 c 0.3,-1.6 1.3,-2.8 2.7,-3.5 4.3,-3.9 9,-7.2 14.2,-9.8 4.2,-2.1 8,1.9 7.6,5.3 0.8,3 1.6,6 2.2,9 0.6,2.9 1.5,6.3 -0.2,9.1 -1.4,2.4 -4.1,3.3 -6.6,4.3 -3.5,1.4 -7.1,2.8 -10.7,4.2 -3.9,1.5 -6.4,-2 -6,-5.3 -1.1,-3.5 -2.1,-7 -3,-10.6 -0.3,-0.8 -0.4,-1.8 -0.2,-2.7 z"
   id="path438" />
			<path
   fill="#ecbe7b"
   d="m 1011.5,876.8 c -0.3,-1.4 -0.1,-3 1.2,-4.4 3.9,-4.3 7.1,-9 9.9,-14.1 0.7,-1.4 1.8,-2.1 3,-2.4 2.6,-1.6 6.5,-1.1 7.4,2.7 1,4.7 2,9.4 2.7,14.2 0.6,3.7 2.4,9.2 1,12.8 -3.4,8.9 -14.7,-1.1 -20.2,-0.1 -5.4,0.9 -8.2,-5.9 -5,-8.7 z"
   id="path440" />
			<path
   fill="#ecbe7b"
   d="m 966.6,872.6 c 0.4,-0.5 0.9,-0.8 1.4,-1 0,0 0,0 0,-0.1 0.3,-0.4 0.5,-0.8 0.8,-1.3 1.9,-3.1 6.8,-3.4 8.6,0 1.5,2.7 3,5.5 4.4,8.2 1.1,2.1 2.2,4.3 1.6,6.7 -0.7,2.6 -3.2,4.1 -5.2,5.7 -1.9,1.5 -3.8,3.5 -6.1,4.3 -5.5,2.1 -8.9,-4.9 -11.1,-8.8 -3.2,-5.7 2,-9.6 5.6,-13.7 z"
   id="path442" />
			<path
   fill="#ecbe7b"
   d="m 874.7,922.9 c 3.5,-0.7 7,-1.5 10.4,-2.5 3.1,-0.9 5.2,1 5.9,3.4 2.4,0.8 3.9,3.6 3.2,6 L 887,955 c -1.3,4.5 -8.6,5 -9.6,0 -1.8,-8.7 -3.8,-17.4 -6.1,-26 -0.8,-2.5 0.7,-5.6 3.4,-6.1 z"
   id="path444" />
			<path
   fill="#ecbe7b"
   d="m 778.2,883.7 c -0.3,-0.8 -0.3,-1.8 -0.1,-2.8 0.7,-2.4 3.6,-4.5 6.2,-3.5 5.5,2.2 11.1,4.3 16.6,6.5 2.5,1 4.3,3.4 3.5,6.2 -0.4,1.4 -1.5,2.6 -2.9,3.3 -0.2,0.4 -0.5,0.8 -0.9,1.2 -4.5,4.8 -9,9.6 -13.5,14.3 -3.1,3.3 -8.4,0.7 -8.5,-3.5 -0.2,-6.6 -0.5,-13.2 -0.7,-19.7 -0.1,-0.7 0.1,-1.4 0.3,-2 z"
   id="path446" />
			<path
   fill="#ecbe7b"
   d="m 743.2,844.1 c 1.9,-9.3 6.8,-18.6 10.2,-27.4 1.1,-2.7 3.6,-4.1 6.1,-3.4 2.1,-0.9 4.7,-0.6 6.4,1.8 1.5,2.2 3.4,4 5.6,5.5 2.1,1.4 4.2,2.4 5.2,4.8 1.9,4.8 -2.7,11.4 -4.6,15.7 -1.8,4.2 -3.2,10.4 -8,12.3 -2.4,0.9 -4.4,0.3 -6.7,-0.5 -3.1,-1.1 -6,-2.1 -9.3,-2.3 -3.4,-0.4 -5.5,-3.1 -4.9,-6.5 z"
   id="path448" />
			<path
   fill="#ecbe7b"
   d="m 631.4,720.8 c 0.6,-3.2 3.8,-5.8 7.1,-3.3 4,3 8,6 11.9,9 2.7,2.1 6.4,4.1 6,8.1 -0.3,3.4 -3.8,5.9 -5.9,8.3 l -10.8,11.6 c -3.2,3.4 -8.2,0.5 -8.5,-3.5 -0.8,-8.6 -1.6,-17.2 -2.3,-25.8 -0.3,-2.1 0.9,-3.6 2.5,-4.4 z"
   id="path450" />
			<path
   fill="#ecbe7b"
   d="m 642.4,886.9 c 0.1,3.6 -0.3,8 3.5,9.9 3.8,1.9 10.1,0 14.2,0.2 3.7,0.2 8.6,2 11.7,-0.7 3.5,-3 1.9,-9.5 1.7,-13.5 -0.2,-5.2 -0.4,-10.4 -0.7,-15.5 0.2,-0.9 0.5,-1.8 0.7,-2.7 0.9,-3.5 -2.5,-7.4 -6.2,-6.2 -5.2,1.7 -10.3,3.6 -15.3,5.7 -4,1.7 -9,2.9 -9.8,7.8 -0.8,4.8 0,10.2 0.2,15 z m 21.4,0.4 c -0.2,0 -0.5,0 -0.7,-0.1 0,0 0,0 0,0 0.4,-0.2 0.7,-0.4 1,-0.6 0,0.2 0,0.5 0,0.7 -0.1,0 -0.3,0 -0.3,0 z"
   id="path452" />
			<path
   fill="#ecbe7b"
   d="m 708.9,778.6 c 8.4,-8.6 16.7,-17.9 27.7,-23.3 4.7,-2.3 9,3.1 7.2,6.6 0,0.2 0,0.5 0,0.7 -0.1,5.1 -0.2,10.3 -0.3,15.4 -0.1,3.6 0.7,8.4 -0.5,11.8 -1.6,4.8 -5.6,4.7 -9.7,3.3 -2.4,-0.4 -4.4,-1.7 -7.1,-2.9 -4.3,-1.8 -8.9,-2.9 -13.6,-3.3 -4.4,-0.1 -6.9,-5 -3.7,-8.3 z"
   id="path454" />
			<path
   fill="#ecbe7b"
   d="m 719.8,900.3 c 3,-8.8 6.4,-17.5 10,-26 0.5,-1.1 1.2,-1.9 2,-2.4 1,-3.9 6.8,-6 9.1,-1.5 3.2,6.4 6.4,12.9 9.7,19.3 1.6,3.2 3.2,6.4 4.8,9.7 1.2,2.4 3,5.1 3.3,7.8 0.5,5.7 -4.9,7 -9.1,8.6 -5.9,2.2 -11.4,5.4 -16.2,9.5 -2.2,1.8 -6.5,2.2 -7.9,-1 -2,-4.7 -4.3,-9.3 -6.1,-14 -1.2,-3.7 -0.8,-6.4 0.4,-10 z"
   id="path456" />
			<path
   fill="#ecbe7b"
   d="m 565,748.9 c 2.9,-9.4 5,-19.7 8.9,-28.8 3.2,-7.5 8.9,-4.3 13.2,0.2 1.3,1.3 3.3,3.3 5.2,5.5 0.5,0.5 0.9,1 1.3,1.6 1.7,2.3 3.1,4.7 3,7 0.2,0.4 0.4,0.8 0.6,1.2 1.5,3 3.8,7.1 3.2,10.5 -0.7,3.9 -5.1,6.4 -7.9,8.8 -4.3,3.6 -8.5,7.3 -12.8,10.9 -1.8,1.5 -3.8,1.4 -5.7,0 -3,-2.3 -8.3,-5 -10.1,-8.4 -1.2,-2.8 0.2,-5.8 1.1,-8.5 z"
   id="path458" />
			<path
   fill="#ecbe7b"
   d="m 737.1,545 c -1.4,-6.2 -6,-12.2 -10,-16.9 -3,-3.6 -7.8,-9.1 -12.7,-6.4 -1.7,-0.3 -3.4,0.4 -4.3,2.6 -3.2,7.3 -6.3,14.5 -9.5,21.8 -2.6,5.9 -4,10.7 1.3,15.5 3,2.7 6.5,5.1 9.7,7.6 2.1,1.6 4.2,3.9 6.9,4.4 6.4,1.2 9.5,-7.2 12.2,-11.5 3.2,-5.2 7.8,-10.6 6.4,-17.1 z"
   id="path460" />
			<path
   fill="#ecbe7b"
   d="m 767.7,584.1 c -13.5,3 -27.2,5.2 -41,6.5 -4.6,0.4 -5.9,5.8 -3.9,8.5 1.8,9.8 4.6,19.4 8.2,28.7 1.2,3.1 5.7,5.4 8.4,2.2 10.5,-13 21.5,-25.5 33.1,-37.5 3.6,-3.7 0,-9.5 -4.8,-8.4 z M 739,599.2 c -1.8,1.1 -3.5,2.4 -5,3.8 -0.2,-1 -0.5,-2.1 -0.7,-3.1 1.8,-0.2 3.8,-0.4 5.7,-0.7 z m 13.6,0.1 c -0.2,-0.7 -0.5,-1.4 -0.9,-1.9 1,-0.2 2.1,-0.3 3.1,-0.5 -0.7,0.7 -1.5,1.6 -2.2,2.4 z"
   id="path462" />
			<path
   fill="#ecbe7b"
   d="m 1066.5,783.2 c -0.3,-4.9 -1.6,-10 -3.4,-14.5 -0.4,-0.9 -0.9,-1.6 -1.6,-2.2 -1.3,-2 -3.8,-3.1 -6.5,-1.6 -6.1,3.5 -11.6,7.8 -16.5,12.9 -1.8,1.9 -2,5.2 0,7.1 3.7,3.4 7.5,7.1 11.7,9.9 4,2.8 6.6,1.2 9.9,-1.8 3.1,-2.9 6.7,-5.2 6.4,-9.8 z"
   id="path464" />
			<path
   fill="#ecbe7b"
   d="m 1046.9,813 c -7,-6.3 -12.5,-12.6 -17.6,-20.5 -1,-1.6 -2.5,-2.3 -4,-2.3 -2.6,-1.3 -6.1,-0.7 -6.8,3 -1.1,6.2 -2.1,12.4 -2.9,18.7 -0.7,5.4 -2.6,12.4 -1.5,17.8 0.9,4.6 5.8,6 9.6,7.5 5.9,2.4 12,4.2 18.3,5.4 2.5,0.5 5.5,-0.7 6.2,-3.5 1.1,-5.1 2.6,-10.3 3.4,-15.5 0.6,-4.7 -1.3,-7.5 -4.7,-10.6 z m -10.7,3.9 c -0.3,-0.1 -0.6,-0.2 -0.9,-0.3 -0.4,-0.7 -1,-1.3 -1.8,-1.9 0,-0.1 -0.1,-0.3 -0.1,-0.4 0.4,0.4 0.8,0.8 1.2,1.2 0.5,0.5 1,0.9 1.6,1.4 z"
   id="path466" />
			<path
   fill="#ecbe7b"
   d="m 987.7,844.4 c -3.9,-7.2 -3.6,-19.2 -10.4,-24.6 -1.7,-1.4 -4.1,-2.1 -6.1,-0.8 -4,2.6 -6.5,8 -8.7,12.1 -2.7,4.8 -5,9.8 -7,15 -0.6,1.5 -0.2,3 0.7,4.2 0.4,2.6 2.8,5.2 6.2,4.5 6.9,-1.4 13.9,-2.3 20.9,-2.8 3.9,-0.3 6.3,-4.1 4.4,-7.6 z"
   id="path468" />
		</g>
	</g>
	<path
   id="body-ring-highlight-base"
   fill="#51afef"
   d="m 424.61441,114.46799 c 4.72487,0 9.31194,0.92529 13.62338,2.74633 4.1638,1.76199 7.91417,4.29176 11.12314,7.50074 3.21882,3.21882 5.73876,6.95935 7.50074,11.12314 1.82105,4.31145 2.74633,8.89852 2.74633,13.62339 0,4.72487 -0.92528,9.31194 -2.74633,13.62339 -1.76198,4.16379 -4.29176,7.91416 -7.50074,11.12314 -3.21882,3.21882 -6.95934,5.73875 -11.12314,7.50074 -4.31144,1.82104 -8.89851,2.74633 -13.62338,2.74633 -4.72488,0 -9.31194,-0.92529 -13.62339,-2.74633 -4.1638,-1.76199 -7.91417,-4.29176 -11.12314,-7.50074 -3.21882,-3.21882 -5.73876,-6.95935 -7.50074,-11.12314 -1.82105,-4.31145 -2.74634,-8.89852 -2.74634,-13.62339 0,-4.72487 0.92529,-9.31194 2.74634,-13.62339 1.76198,-4.16379 4.29176,-7.91416 7.50074,-11.12314 3.21882,-3.21882 6.95934,-5.73875 11.12314,-7.50074 4.31145,-1.82104 8.89851,-2.74633 13.62339,-2.74633 m 0,-1.25997 c -20.02166,0 -36.26342,16.23191 -36.26342,36.26341 0,20.0315 16.23192,36.26342 36.26342,36.26342 20.03149,0 36.2634,-16.23192 36.2634,-36.26342 0,-20.0315 -16.24175,-36.26341 -36.2634,-36.26341 z"
   style="stroke-width:0.0984349" />

		<linearGradient
   id="body-ring-highlight-gradient_00000072983857701577827820000001288592993004758974_"
   gradientUnits="userSpaceOnUse"
   x1="987.21118"
   y1="913.35779"
   x2="825.76898"
   y2="662.52191"
   gradientTransform="matrix(0.09843489,0,0,0.09843489,342.31299,82.673521)">
		<stop
   offset="0"
   style="stop-color:#F1F1F1"
   id="stop474" />
		<stop
   offset="1"
   style="stop-color:#000000"
   id="stop476" />
	</linearGradient>

		<path
   id="body-ring-highlight-gradient"
   opacity="0.05"
   fill="url(#body-ring-highlight-gradient_00000072983857701577827820000001288592993004758974_)"
   d="m 424.61441,114.46799 c 4.72487,0 9.31194,0.92529 13.62338,2.74633 4.1638,1.76199 7.91417,4.29176 11.12314,7.50074 3.21882,3.21882 5.73876,6.95935 7.50074,11.12314 1.82105,4.31145 2.74633,8.89852 2.74633,13.62339 0,4.72487 -0.92528,9.31194 -2.74633,13.62339 -1.76198,4.16379 -4.29176,7.91416 -7.50074,11.12314 -3.21882,3.21882 -6.95934,5.73875 -11.12314,7.50074 -4.31144,1.82104 -8.89851,2.74633 -13.62338,2.74633 -4.72488,0 -9.31194,-0.92529 -13.62339,-2.74633 -4.1638,-1.76199 -7.91417,-4.29176 -11.12314,-7.50074 -3.21882,-3.21882 -5.73876,-6.95935 -7.50074,-11.12314 -1.82105,-4.31145 -2.74634,-8.89852 -2.74634,-13.62339 0,-4.72487 0.92529,-9.31194 2.74634,-13.62339 1.76198,-4.16379 4.29176,-7.91416 7.50074,-11.12314 3.21882,-3.21882 6.95934,-5.73875 11.12314,-7.50074 4.31145,-1.82104 8.89851,-2.74633 13.62339,-2.74633 m 0,-1.25997 c -20.02166,0 -36.26342,16.23191 -36.26342,36.26341 0,20.0315 16.23192,36.26342 36.26342,36.26342 20.03149,0 36.2634,-16.23192 36.2634,-36.26342 0,-20.0315 -16.24175,-36.26341 -36.2634,-36.26341 z"
   style="fill:url(#body-ring-highlight-gradient_00000072983857701577827820000001288592993004758974_);stroke-width:0.0984349" />
	<path
   fill="#2222223"
   d="M 440.33446,138.18095"
   id="path480"
   style="stroke-width:0.0984349" />
</g>
<g
   id="horn-shadows"
   transform="matrix(0.09843489,0,0,0.09843489,-30.848795,-9.0264778)">

		<radialGradient
   id="SVGID_00000108290060337959240200000013801437711270179517_"
   cx="978.34821"
   cy="469.03961"
   r="160.68469"
   gradientTransform="matrix(-1,0,0,1,1633.9563,0)"
   gradientUnits="userSpaceOnUse">
		<stop
   offset="0.1077"
   style="stop-color:#000000"
   id="stop483" />
		<stop
   offset="1"
   style="stop-color:#000000;stop-opacity:0"
   id="stop485" />
	</radialGradient>
	<path
   opacity="0.3"
   fill="url(#SVGID_00000108290060337959240200000013801437711270179517_)"
   d="m 683.4,410.9 c 20.4,17.1 42.3,37.7 64.3,62.1 34.7,38.4 60.4,76.1 79.5,108.6 -59.8,-8.8 -126.9,-25.2 -197,-54.6 -13.7,-5.7 -26.9,-11.7 -39.6,-17.9 -21.2,-26.4 -19.7,-64.8 3.4,-89.4 23.2,-24.9 61.7,-28.7 89.4,-8.8 z"
   id="path488"
   style="fill:url(#SVGID_00000108290060337959240200000013801437711270179517_)" />

		<radialGradient
   id="SVGID_00000161604406171553201220000006736794726258963625_"
   cx="1090.8011"
   cy="554.5365"
   r="186.58859"
   gradientTransform="matrix(-1,0,0,1,1633.9563,0)"
   gradientUnits="userSpaceOnUse">
		<stop
   offset="0.1077"
   style="stop-color:#000000"
   id="stop490" />
		<stop
   offset="1"
   style="stop-color:#000000;stop-opacity:0"
   id="stop492" />
	</radialGradient>
	<path
   opacity="0.3"
   fill="url(#SVGID_00000161604406171553201220000006736794726258963625_)"
   d="m 551.7,504.9 c 34,21 39.5,54 61.9,83.8 12.9,17.2 34.8,37.8 74,51.5 -15.2,7 -45.4,18.1 -83.2,13.6 -4.1,-0.5 -65,-8.7 -104.2,-60.7 -12.9,-17.1 -31.4,-41.6 -22.3,-65.7 6.6,-17.6 26.7,-31.4 46.5,-31.4 9.2,0 17.7,3 27.3,8.9 z"
   id="path495"
   style="fill:url(#SVGID_00000161604406171553201220000006736794726258963625_)" />
</g>
<g
   id="right-bottom-front-horn"
   transform="matrix(0.09843489,0,0,0.09843489,-30.848795,-9.0264778)">
	<path
   fill="#a9a1e1"
   d="m 732.5,1092.7 c 0,0 -12.8,-89.2 -11,-133.7 0.3,-8.1 0.9,-17 6.7,-22.6 2.5,-2.5 5.8,-4.1 9.1,-5.4 16.1,-6.7 34.5,-8.8 50.9,-2.8 13.1,4.8 26.9,16.8 30.5,30.8 3.7,14.6 -6.9,26.5 -14.7,37.8 -10.3,14.8 -21,29.4 -32,43.7 -5.7,7.3 -11.5,14.5 -17.3,21.7 -2.9,3.4 -22.2,30.5 -22.2,30.5 z"
   id="path498" />
	<path
   opacity="0.75"
   fill="#fffffe"
   d="m 732.5,1092.7 c 0,0 -12.8,-89.2 -11,-133.7 0.3,-8.1 0.9,-17 6.7,-22.6 2.5,-2.5 5.8,-4.1 9.1,-5.4 16.1,-6.7 34.5,-8.8 50.9,-2.8 13.1,4.8 26.9,16.8 30.5,30.8 3.7,14.6 -6.9,26.5 -14.7,37.8 -10.3,14.8 -21,29.4 -32,43.7 -5.7,7.3 -11.5,14.5 -17.3,21.7 -2.9,3.4 -22.2,30.5 -22.2,30.5 z"
   id="path500" />
	<path
   opacity="0.28"
   d="m 737.2,930.9 c 31.4,-13 50.9,-2.8 50.9,-2.8 2.8,1.2 27.4,11.3 30.6,30.8 1.3,8.2 -13.7,22.2 -33.6,51.9 0,0 -42.5,62.2 -46.9,69.3 -4.1,6.6 -5.1,11.2 -5.7,12.5 16.4,-44 35.4,-112.3 35.4,-112.3 0.7,-4.1 1.4,-8.2 1.1,-12.4 -0.6,-10.6 -7.1,-24.2 -21.6,-28.3 -14.5,-4.1 -23.4,3.1 -23.4,3.1 0,0 2.3,-4.6 4.2,-6.4 2.5,-2.5 5.7,-4.1 9,-5.4 z"
   id="path502" />
</g>
<g
   id="bottom-mouth-highlight"
   transform="matrix(0.09843489,0,0,0.09843489,-30.848795,-9.0264778)">
	<path
   opacity="0.24"
   fill="#fffffe"
   d="m 901.7,794.6 c 7.3,4.2 24.6,12.9 47,10.8 9.7,-0.9 17.7,-3.6 23.6,-6.1 5.4,-2.5 12.5,-6.6 19.7,-13.1 9.9,-9 15.4,-18.6 18.3,-24.9 -7.2,7.6 -22.5,21.8 -46.6,30 -27.8,9.4 -51.6,5.6 -62,3.3 z"
   id="path505" />
</g>
<g
   id="mouth"
   transform="matrix(0.09843489,0,0,0.09843489,-30.848795,-9.0264778)">
	<g
   id="Layer_30">

			<radialGradient
   id="SVGID_00000046317211901359319330000001709742544549127578_"
   cx="773.92542"
   cy="785.88019"
   r="118.5694"
   gradientUnits="userSpaceOnUse">
			<stop
   offset="0.4672"
   style="stop-color:#FFFFFF"
   id="stop508" />
			<stop
   offset="0.5231"
   style="stop-color:#FAFAFA"
   id="stop510" />
			<stop
   offset="0.589"
   style="stop-color:#ECECEC"
   id="stop512" />
			<stop
   offset="0.6599"
   style="stop-color:#D4D4D4"
   id="stop514" />
			<stop
   offset="0.7345"
   style="stop-color:#B3B3B3"
   id="stop516" />
			<stop
   offset="0.8118"
   style="stop-color:#888888"
   id="stop518" />
			<stop
   offset="0.8915"
   style="stop-color:#545454"
   id="stop520" />
			<stop
   offset="0.9716"
   style="stop-color:#171717"
   id="stop522" />
			<stop
   offset="1"
   style="stop-color:#000000"
   id="stop524" />
		</radialGradient>
		<path
   opacity="0.24"
   fill="url(#SVGID_00000046317211901359319330000001709742544549127578_)"
   d="M 749,669.9 866.3,774.7 826.4,722.3 819.3,702 797.2,688.6 786,669.9 c 0,0 -14.8,-15.8 -25.9,-10.2 -11.1,5.7 -11.1,10.2 -11.1,10.2 z"
   id="path527"
   style="fill:url(#SVGID_00000046317211901359319330000001709742544549127578_)" />
	</g>
	<g
   id="g532">
		<path
   fill="#a9a1e1"
   d="m 826.4,705.3 c 0,0 44.1,103.8 129.1,82.6 85,-21.2 70.3,-124.4 70.3,-124.4 -4.6,2.6 -9.9,5.3 -15.8,7.8 -7.5,3.2 -14.5,5.5 -20.8,7.2 -4.2,1.2 -12.8,3.2 -23.2,0.8 -10.7,-2.5 -17.4,-8.3 -21.3,-11.7 -8.1,-7.2 -12.4,-15.2 -14.6,-20.3 0,0 2.1,24.5 -12.8,39.7 -18.2,18.5 -46.8,20 -60.3,20.9 -12.7,0.6 -23.4,-1 -30.6,-2.6 z"
   id="path530" />
	</g>
	<g
   id="g541">

			<linearGradient
   id="SVGID_00000075162231543484373460000011579818577516431262_"
   gradientUnits="userSpaceOnUse"
   x1="924.09729"
   y1="672.30701"
   x2="938.16431"
   y2="758.79321">
			<stop
   offset="0"
   style="stop-color:#000000;stop-opacity:0.61732364;"
   id="stop534" />
			<stop
   offset="1"
   style="stop-color:#cbcbcb;stop-opacity:0.60400689;"
   id="stop536" />
		</linearGradient>
		<path
   fill="url(#SVGID_00000075162231543484373460000011579818577516431262_)"
   d="m 826.4,705.3 c 0,0 44.1,103.8 129.1,82.6 85,-21.2 70.3,-124.4 70.3,-124.4 -4.6,2.6 -9.9,5.3 -15.8,7.8 -7.5,3.2 -14.5,5.5 -20.8,7.2 -4.2,1.2 -12.8,3.2 -23.2,0.8 -10.7,-2.5 -17.4,-8.3 -21.3,-11.7 -8.1,-7.2 -12.4,-15.2 -14.6,-20.3 0,0 2.1,24.5 -12.8,39.7 -18.2,18.5 -46.8,20 -60.3,20.9 -12.7,0.6 -23.4,-1 -30.6,-2.6 z"
   id="path539"
   style="fill:url(#SVGID_00000075162231543484373460000011579818577516431262_)" />
	</g>
	<path
   fill="none"
   stroke="#282c34"
   stroke-width="10"
   stroke-linejoin="round"
   stroke-miterlimit="10"
   d="m 851.6,704.7 c -13.5,0.9 -24.8,-0.9 -32.4,-2.6 0,0 46.5,112.4 136.2,89.4 89.7,-22.9 74.2,-134.6 74.2,-134.6 -4.9,2.8 -10.4,5.7 -16.6,8.4"
   id="path543" />
</g>
<g
   id="tongue-bottom-teeth"
   transform="matrix(0.09843489,0,0,0.09843489,-30.848795,-9.0264778)">
	<g
   id="g584">
		<defs
   id="defs547">
			<path
   id="SVGID_00000069381217501785395630000001038519224523542695_"
   d="m 809.3,667.4 c 0,0 6.9,18.4 17.3,38.1 21.6,41.1 63.8,98.4 129.6,81.6 97.4,-24.9 64.1,-157 64.1,-157 z" />
		</defs>
		<clipPath
   id="SVGID_00000018218559845548950980000007704689550762153378_">
			<use
   xlink:href="#SVGID_00000069381217501785395630000001038519224523542695_"
   overflow="visible"
   id="use549" />
		</clipPath>
		<g
   clip-path="url(#SVGID_00000018218559845548950980000007704689550762153378_)"
   id="g556">
			<path
   fill="#a9a1e1"
   d="m 935.1,794.7 c -30.1,0 -53.3,-16.8 -54.2,-17.6 l -2.9,-2.2 2.3,-2.8 c 7.5,-9.4 16.4,-17 26.5,-22.7 8.4,-4.7 18.7,-9.6 30.4,-9.6 2.1,0 4.3,0.2 6.4,0.5 4.1,0.6 8.4,2.5 12.5,4.8 -0.2,-1.2 -0.1,-2.1 0.1,-2.9 1,-3.9 4.3,-6 5.5,-6.8 2.8,-1.8 6.3,-2.7 10.5,-2.7 14.1,0 33.4,10 38.9,13.1 l 3.2,1.7 -1.9,3.1 c -3.3,5.5 -7.1,10.6 -11.5,15.2 -10.7,11.3 -25.5,19.9 -43.9,25.5 -6.9,2.3 -14.3,3.4 -21.9,3.4 z"
   id="path552" />
			<path
   d="m 972.3,736.3 c 13.9,0 33.8,10.8 37.2,12.7 -2.3,3.9 -5.9,9.1 -11,14.6 -8.1,8.5 -20.8,18 -42.4,24.5 -7.2,2.2 -14.3,3.1 -21,3.1 -29.3,0 -52.1,-16.9 -52.1,-16.9 5.8,-7.3 14.1,-15.4 25.5,-21.8 7.2,-4 17.2,-9.1 28.7,-9.1 1.9,0 3.9,0.1 5.9,0.5 12.3,1.9 28.1,16.8 28.1,16.8 0,0 -13.1,-12.8 -11.5,-17.4 0.7,-2.6 3,-4.1 4.1,-4.8 2.2,-1.6 5.2,-2.2 8.5,-2.2 m 0,-7 v 0 c -4.9,0 -9.1,1.1 -12.4,3.2 -1.3,0.8 -4.8,3.1 -6.5,7.3 -3.1,-1.4 -6.2,-2.5 -9.2,-2.9 -2.3,-0.4 -4.6,-0.5 -6.9,-0.5 -12.6,0 -23.3,5.1 -32.1,10 -10.5,5.9 -19.8,13.8 -27.6,23.6 l -4.5,5.7 5.8,4.3 c 1,0.7 25,18.2 56.3,18.2 7.9,0 15.7,-1.1 23.1,-3.4 19,-5.8 34.3,-14.7 45.4,-26.4 4.5,-4.8 8.5,-10.1 11.9,-15.8 l 3.7,-6.2 -6.3,-3.5 c -7.5,-4.1 -26.2,-13.6 -40.7,-13.6 z"
   id="path554" />
		</g>
		<g
   opacity="0.29"
   clip-path="url(#SVGID_00000018218559845548950980000007704689550762153378_)"
   id="g565">

				<linearGradient
   id="SVGID_00000158714742812527102600000010699671165720612249_"
   gradientUnits="userSpaceOnUse"
   x1="962.38232"
   y1="788.21613"
   x2="941.3335"
   y2="753.48547">
				<stop
   offset="0"
   style="stop-color:#F1F1F1"
   id="stop558" />
				<stop
   offset="1"
   style="stop-color:#000000"
   id="stop560" />
			</linearGradient>
			<path
   fill="url(#SVGID_00000158714742812527102600000010699671165720612249_)"
   d="m 883,774.3 c 5.8,-7.3 14.1,-15.4 25.5,-21.8 8.4,-4.7 20.7,-10.9 34.6,-8.7 12.3,1.9 28.1,16.8 28.1,16.8 0,0 -13.1,-12.8 -11.5,-17.4 0.7,-2.6 3,-4.1 4.1,-4.8 12.1,-7.8 41.6,8.2 45.9,10.6 -2.3,3.9 -5.9,9.1 -11,14.6 -8.1,8.5 -20.8,18 -42.4,24.5 C 917.5,799.8 883,774.3 883,774.3 Z"
   id="path563"
   style="fill:url(#SVGID_00000158714742812527102600000010699671165720612249_)" />
		</g>

			<radialGradient
   id="SVGID_00000155114146909011885170000005071042296881249409_"
   cx="981.58392"
   cy="720.34998"
   r="67.180298"
   gradientTransform="matrix(0.8317,-0.5552,0.5552,0.8317,-260.3599,663.2751)"
   gradientUnits="userSpaceOnUse">
			<stop
   offset="0"
   style="stop-color:#FFFFFF"
   id="stop567" />
			<stop
   offset="1"
   style="stop-color:#FFFFFF;stop-opacity:0"
   id="stop569" />
		</radialGradient>

			<path
   opacity="0.43"
   clip-path="url(#SVGID_00000018218559845548950980000007704689550762153378_)"
   fill="url(#SVGID_00000155114146909011885170000005071042296881249409_)"
   d="m 983.8,775.3 c -2.8,-5.2 -5.6,-8.4 -7.8,-10.4 -0.9,-0.9 -2,-1.8 -4.2,-3.9 -1.8,-1.7 -3.5,-3.3 -5.5,-5.7 -1,-1.1 -2.4,-2.8 -3.9,-5 -2.6,-3.7 -3.3,-5.2 -2.9,-6.5 0.1,-0.3 0.3,-1.1 0.9,-1.4 3.3,-1.7 15.9,11.8 21.8,28 0.9,2.2 1.4,4 1.6,4.9 z"
   id="path572"
   style="fill:url(#SVGID_00000155114146909011885170000005071042296881249409_)" />
		<g
   opacity="0.85"
   clip-path="url(#SVGID_00000018218559845548950980000007704689550762153378_)"
   id="g582">
			<g
   id="g578">
				<path
   fill="#fffffe"
   d="m 937.1,799.4 c -13.7,0 -27.2,-9.4 -27.8,-9.8 l -1.3,-0.9 10.7,-25 c 1.2,-2.7 3.8,-4.5 6.8,-4.5 2.6,0 4.9,1.3 6.2,3.5 l 20,31.9 -1.6,1.1 c -3.7,2.4 -8.1,3.7 -13,3.7 0,0 0,0 0,0 z"
   id="path574" />
				<path
   d="m 925.4,761.2 c 1.7,0 3.5,0.8 4.5,2.5 l 19,30.3 c -3.7,2.4 -7.8,3.3 -11.9,3.3 -13.2,0 -26.7,-9.4 -26.7,-9.4 l 10.1,-23.5 c 1,-2.1 3,-3.2 5,-3.2 m 0,-4 c -3.8,0 -7.2,2.2 -8.6,5.7 l -10.1,23.5 -1.3,3 2.7,1.9 c 0.6,0.4 14.7,10.1 29,10.1 5.3,0 10.1,-1.3 14.1,-4 l 3.3,-2.1 -2.1,-3.3 -19,-30.3 c -1.7,-2.8 -4.7,-4.5 -8,-4.5 z"
   id="path576" />
			</g>
			<path
   opacity="0.28"
   fill="#a9a1e1"
   d="m 916.5,791.5 c 7.1,0.3 11.1,-3.3 13.9,-7.6 2.9,-4.3 -2.1,-12.3 -5.1,-18.9 -3,-6.6 3.8,-2.3 3.8,-2.3 0,0 17.7,28.6 19.7,31.1 v 0.3 c -0.2,0.1 -0.3,0.2 -0.5,0.3 -2.7,1.4 -8.3,3.8 -15.2,2.7 -8.9,-1.4 -17.2,-5.6 -16.6,-5.6 z"
   id="path580" />
		</g>
	</g>
</g>
<g
   id="upper-teeth"
   transform="matrix(0.09843489,0,0,0.09843489,-30.848795,-9.0264778)">
	<g
   id="g595">
		<g
   id="g591">
			<path
   fill="#fffffe"
   d="m 1003.7,712 c -2.5,0 -4.8,-1.1 -6.5,-3 l -22.6,-26.8 c -0.5,-0.6 -0.6,-1.4 -0.3,-2.1 0.3,-0.7 1,-1.2 1.8,-1.2 0.3,0 33.6,-0.5 41.8,-16.3 0.4,-0.7 1,-1.1 1.8,-1.1 0.2,0 0.5,0 0.7,0.1 0.9,0.4 1.5,1.3 1.3,2.3 l -9.6,41.4 c -1,4 -4.4,6.7 -8.4,6.7 z"
   id="path587" />
			<path
   d="M 1019.7,663.6 1010,705 c -0.7,3.2 -3.5,5.1 -6.4,5.1 -1.8,0 -3.6,-0.7 -5,-2.3 L 976,681 c 0.1,-0.1 34.8,-0.4 43.7,-17.4 m 0,-4 c -1.5,0 -2.8,0.8 -3.5,2.1 -6.4,12.2 -31.1,15.1 -40.1,15.2 -1.5,0 -2.9,0.9 -3.6,2.3 -0.7,1.4 -0.4,3.1 0.6,4.2 l 22.6,26.8 c 2,2.4 4.9,3.7 8,3.7 4.9,0 9.2,-3.4 10.3,-8.2 l 9.6,-41.4 c 0.5,-2 -0.6,-4 -2.5,-4.7 -0.5,0.1 -1,0 -1.4,0 z"
   id="path589" />
		</g>
		<path
   opacity="0.28"
   fill="#a9a1e1"
   d="m 1004.3,681.9 c -1.7,-1.2 -5.9,-1.4 -14.4,-1.3 -5,0.1 -6.8,0.1 -6.9,-0.1 0,-0.1 8.2,-0.8 14.4,-2.5 6.1,-1.7 14,-5.4 22.3,-14.4 -0.8,3.5 -1.5,6.3 -1.9,8.1 -3.9,16.7 -3.8,15.8 -4.1,17.6 -0.8,4.3 -3,14.7 -3.9,16.6 -0.9,1.9 -1.9,2.6 -2.1,2.8 -1,0.8 -2,1.1 -2.7,1.2 1.2,-3 2.6,-7.8 2.8,-13.8 0,-5.7 0.1,-11.5 -3.5,-14.2 z"
   id="path593" />
	</g>
	<g
   id="g605">
		<g
   id="g601">
			<path
   fill="#fffffe"
   d="m 886,747.2 c -2.3,0 -4.5,-1.1 -5.9,-3 l -29.5,-39.2 4.4,0.4 c 2.4,0.2 4.9,0.3 7.4,0.3 4,0 8,-0.3 12,-0.8 10.2,-1.3 20.1,-4.4 29.4,-9.1 l 4.2,-2.1 -14.7,48.2 c -1.1,3.2 -4,5.3 -7.3,5.3 z"
   id="path597" />
			<path
   d="m 904.6,697.6 -13.4,43.7 c -0.8,2.5 -3,3.9 -5.2,3.9 -1.6,0 -3.2,-0.7 -4.3,-2.2 l -26.9,-35.6 c 2.3,0.2 4.8,0.3 7.5,0.3 3.8,0 7.9,-0.2 12.3,-0.8 12.9,-1.7 23.1,-5.8 30,-9.3 m 6.6,-7.7 -8.4,4.2 c -9.1,4.6 -18.8,7.6 -28.7,8.9 -3.9,0.5 -7.8,0.8 -11.7,0.8 -2.4,0 -4.8,-0.1 -7.2,-0.3 l -8.9,-0.7 5.4,7.1 26.9,35.6 c 1.8,2.4 4.6,3.8 7.5,3.8 4.2,0 7.8,-2.7 9.1,-6.7 l 13.4,-43.7 z"
   id="path599" />
		</g>
		<path
   opacity="0.28"
   fill="#a9a1e1"
   d="m 872.8,707.1 c 4.7,-0.5 10.4,-1.5 16.7,-3.4 5.9,-1.8 11,-4 15.1,-6 L 891,741.8 c -1.1,2.6 -3.3,3 -3.3,3 1.4,-4.2 3.1,-11.5 1.1,-19.7 -0.6,-2.6 -1.5,-6 -4.3,-9.4 -3.9,-4.7 -9.5,-8.1 -11.7,-8.6 z"
   id="path603" />
	</g>
</g>
<g
   id="upper-cat-lip"
   transform="matrix(0.09843489,0,0,0.09843489,-30.848795,-9.0264778)">

		<linearGradient
   id="SVGID_00000052822357312407264660000008931855916420966571_"
   gradientUnits="userSpaceOnUse"
   x1="910.66272"
   y1="666.62299"
   x2="902.6405"
   y2="625.05353">
		<stop
   offset="0"
   style="stop-color:#51afef"
   id="stop608" />
		<stop
   offset="1"
   style="stop-color:#51afef;stop-opacity:0"
   id="stop610" />
	</linearGradient>
	<path
   fill="url(#SVGID_00000052822357312407264660000008931855916420966571_)"
   d="m 749,665.4 c 6.7,-3.7 16.4,-7.6 25.7,-4.5 9.6,3.2 12.9,12.1 19,20.1 15.5,20.4 41.6,25.2 51.7,27.1 27,5 70.6,-10.9 81.4,-31.9 6,-11.5 4.3,-24.1 2.4,-32.1 3,8.8 9.2,21.9 22.4,29.7 25.3,15.1 60.2,1 78.6,-18.7 13.3,-14.3 17.3,-30.8 18.6,-38.9 0,0 3.1,-12.4 11.7,-10.8"
   id="path613"
   style="fill:url(#SVGID_00000052822357312407264660000008931855916420966571_)" />
	<path
   opacity="0.4"
   fill="#4a232b"
   d="m 793.6,681 c 11.6,4.5 43.3,15 81.7,5.1 27,-7 45.4,-20.9 54.7,-29.2 0.1,4 -0.1,14.2 -6.7,24.5 -8.7,13.6 -22.2,17.6 -25.5,18.4 -6.5,3 -16.3,6.7 -28.8,8.2 -14,1.7 -25.5,-0.1 -33,-1.8 -5.6,-1.1 -13.5,-3.3 -22,-8.1 -9.8,-5.7 -16.5,-12.4 -20.4,-17.1 z"
   id="path615" />
	<path
   opacity="0.4"
   fill="#4a232b"
   d="m 935.5,654.4 c 7,3.1 30.4,12.3 59.2,4.8 33.2,-8.8 49.7,-33.8 53.3,-39.5 -2.8,16.6 -15.5,32.1 -26.7,41.4 -12.2,10.2 -24.4,15.1 -32.1,17.5 -3.5,1.1 -17.6,4.9 -32.9,-2.2 -12.6,-6 -18.8,-18.4 -20.8,-22 z"
   id="path617" />
	<path
   fill="none"
   stroke="#282c34"
   stroke-width="6"
   stroke-linecap="round"
   stroke-linejoin="round"
   stroke-miterlimit="10"
   d="m 749,665.4 c 6.7,-3.7 16.4,-7.6 25.7,-4.5 9.6,3.2 12.9,12.1 19,20.1 15.5,20.4 41.6,25.2 51.7,27.1 27,5 70.6,-10.9 81.4,-31.9 6,-11.5 4.3,-24.1 2.4,-32.1 3,8.8 9.2,21.9 22.4,29.7 25.3,15.1 60.2,1 78.6,-18.7 13.3,-14.3 17.3,-30.8 18.6,-38.9 0,0 3.1,-12.4 11.7,-10.8"
   id="path619" />
</g>
<g
   id="eye"
   transform="matrix(0.09843489,0,0,0.09843489,-30.848795,-9.0264778)">
	<g
   id="g646">
		<g
   id="g626">
			<ellipse
   fill="#98be65"
   cx="885.59998"
   cy="511.5"
   rx="107.6"
   ry="107.5"
   id="ellipse622"
   style="fill:#98be65;fill-opacity:1" />
			<path
   d="m 885.6,407 c 57.8,0 104.6,46.8 104.6,104.5 C 990.2,569.2 943.4,616 885.6,616 827.8,616 781,569.2 781,511.5 781,453.8 827.8,407 885.6,407 m 0,-6 c -29.5,0 -57.3,11.5 -78.2,32.4 -20.9,20.9 -32.4,48.6 -32.4,78.1 0,29.5 11.5,57.3 32.4,78.1 20.9,20.9 48.7,32.4 78.2,32.4 29.5,0 57.3,-11.5 78.2,-32.4 20.9,-20.9 32.4,-48.6 32.4,-78.1 0,-29.5 -11.5,-57.3 -32.4,-78.1 C 942.9,412.5 915.1,401 885.6,401 Z"
   id="path624" />
		</g>
		<g
   id="g635">

				<radialGradient
   id="SVGID_00000065036279137089872400000001981250135742949017_"
   cx="892.22839"
   cy="624.95142"
   r="164.2542"
   gradientTransform="matrix(-0.1398,-0.9902,1.6474,-0.2326,-12.5773,1653.7646)"
   gradientUnits="userSpaceOnUse">
				<stop
   offset="0"
   style="stop-color:#c0c7c9;stop-opacity:0.7372396;"
   id="stop628" />
				<stop
   offset="1"
   style="stop-color:#101010;stop-opacity:0.25762016;"
   id="stop630" />
			</radialGradient>
			<ellipse
   fill="url(#SVGID_00000065036279137089872400000001981250135742949017_)"
   cx="885.59998"
   cy="511.5"
   rx="104.6"
   ry="104.5"
   id="ellipse633"
   style="fill:url(#SVGID_00000065036279137089872400000001981250135742949017_)" />
		</g>
		<circle
   fill="#a9a1e1"
   cx="880.90002"
   cy="507.79999"
   r="66.400002"
   id="circle637"
   style="fill:#000000;fill-opacity:0.608549" />

			<linearGradient
   id="SVGID_00000055691112681470952510000006235578985867761539_"
   gradientUnits="userSpaceOnUse"
   x1="769.12543"
   y1="437.75381"
   x2="754.55682"
   y2="562.62769"
   gradientTransform="matrix(-1,0,0,1,1633.9563,0)">
			<stop
   offset="0"
   style="stop-color:#FFFFFF"
   id="stop639" />
			<stop
   offset="1"
   style="stop-color:#FFFFFF;stop-opacity:0"
   id="stop641" />
		</linearGradient>
		<circle
   fill="url(#SVGID_00000055691112681470952510000006235578985867761539_)"
   cx="872.20001"
   cy="500.89999"
   r="42.200001"
   id="circle644"
   style="fill:url(#SVGID_00000055691112681470952510000006235578985867761539_)" />
	</g>
</g>
<g
   id="right-front-horn"
   transform="matrix(0.09843489,0,0,0.09843489,-30.848795,-9.0264778)">
	<path
   fill="#a9a1e1"
   d="m 683.4,410.9 c 0,0 -49.1,-40.8 -82,-88.9 C 568.5,273.9 546.3,204.5 566.2,142.6 516.6,191 501.1,284 529.8,377.4 c 16.5,53.4 44.2,114.6 54.5,123.9 14.9,13.6 47.2,21.4 89.7,-19.4 42.5,-40.8 9.4,-71 9.4,-71 z"
   id="path649" />
	<path
   opacity="0.75"
   fill="#fffffe"
   d="m 683.4,410.9 c 0,0 -49.1,-40.8 -82,-88.9 C 568.5,273.9 546.3,204.5 566.2,142.6 516.6,191 501.1,284 529.8,377.4 c 16.5,53.4 44.2,114.6 54.5,123.9 14.9,13.6 47.2,21.4 89.7,-19.4 42.5,-40.8 9.4,-71 9.4,-71 z"
   id="path651" />
	<g
   id="g657">
		<path
   opacity="0.28"
   d="m 583.8,501 c -0.4,-0.4 -0.5,-0.3 0,0 z"
   id="path653" />
		<path
   opacity="0.28"
   d="M 656.6,398.5 C 641.7,384.7 617.1,360.8 588,316.1 563.6,278.6 551.5,235.5 554.8,192.5 c 0,-16.8 2.4,-33.6 7.8,-49.9 0,0 0,0 0,0 -1.6,4.2 -11.8,16.7 -18.2,42.5 -3.3,13.3 -5.9,37.4 -5.3,50.5 1.9,38.7 10.1,76.9 33.1,117.6 23,40.7 56.6,89.5 56.6,89.5 0,0 16.1,20.4 6.5,39.7 -9.6,19.3 -27.4,22.1 -34.6,21.7 -11,-0.6 -15.6,-2.5 -16.9,-3.1 0.1,0.1 0.3,0.2 0.5,0.4 15.3,13.6 44.7,22.7 88.4,-18.1 19.5,-18.2 23.7,-34.6 22.3,-47.2 -8.9,-13.4 -26.3,-26.4 -38.4,-37.6 z"
   id="path655" />
	</g>
</g>
<g
   id="right-side-horn"
   transform="matrix(0.09843489,0,0,0.09843489,-30.848795,-9.0264778)">
	<path
   fill="#a9a1e1"
   d="m 560.2,547.7 c -2.4,19 -19.6,32 -32.9,37 -36.1,13.7 -81.6,-23.4 -102.5,-48.9 -40.7,-49.9 -33.6,-112.2 -31.2,-128.6 14.4,44.8 35.7,63.7 52,72.7 41.7,23 86.4,1.4 107.3,30.3 11.7,15.9 7.5,35.9 7.3,37.5 z"
   id="path660" />
	<path
   opacity="0.75"
   fill="#fffffe"
   d="m 560.2,547.7 c -2.4,19 -19.6,32 -32.9,37 -36.1,13.7 -81.6,-23.4 -102.5,-48.9 -40.7,-49.9 -33.6,-112.2 -31.2,-128.6 14.4,44.8 35.7,63.7 52,72.7 41.7,23 86.4,1.4 107.3,30.3 11.7,15.9 7.5,35.9 7.3,37.5 z"
   id="path662" />
	<path
   opacity="0.28"
   d="m 560.9,529.7 c 0,-5.5 -2,-14.2 -7.6,-21.3 -2,-2.5 -4.2,-4.5 -6.5,-6 -1.8,-0.1 -37,-4.8 -50.6,-4.8 -4.7,0 -19.8,-0.4 -34.5,-5.6 -20,-7.1 -32,-20.4 -39.3,-28.6 -17.5,-19.4 -28.3,-57.5 -28.4,-57.9 0,0 0,0 0,0 0,0 0,0 0,0 -0.2,1.3 -0.4,2.8 -0.6,4.6 2,11.5 5.8,26.9 13.5,43.7 6.4,13.9 17.8,38.7 42.1,57.4 29.6,22.6 55.9,18 62.9,38.9 0.9,2.8 3.8,13 -1.3,20 -4.9,6.6 -14.9,7.5 -21.7,8.2 -5.5,0.5 -10.2,0.1 -13.4,-0.4 3,1.6 22.2,11.9 39.7,10 6.5,-0.7 12.6,-3.1 12.6,-3.1 2.2,-0.8 7.8,-3 14.3,-8 3.5,-2.7 5.9,-5.2 7,-6.4 2.2,-2.4 5.8,-6.4 8.4,-12.5 0.5,-1.1 1.5,-3.6 2.3,-7 0,0 0,0 0,0 0,0 0.7,-2.7 1.2,-5.7 0.9,-7.8 -0.1,-15.5 -0.1,-15.5 z"
   id="path664" />
</g>
<g
   id="guides"
   transform="translate(-373.16178,-91.7)">
</g>
</svg>
